<svg xmlns="http://www.w3.org/2000/svg" viewBox="0 0 16 16"><path d="M7 6.8l-2.9 7.7h7.8L9 6.8c.3-.3.6-.7.6-1.2C9.6 4.7 8.9 4 8 4c-.9 0-1.6.7-1.6 1.6 0 .5.3.9.6 1.2zm-1.4 6.6l1-2.7h2.8l1 2.7H5.6zM9 9.7H7l1-2.6 1 2.6zM3.8 15h8.3v1H3.8v-1zM5.4 2.9l.7.7c-1 1-1 2.7 0 3.7l-.7.8C4 6.7 4 4.4 5.4 2.9zM3.9 1.5l.7.7C2.9 4 2.9 7 4.7 8.8l-.8.8c-2.2-2.3-2.2-5.9 0-8.1zm-.7 8.8l-.7.7c-3-3-3-8 0-11.1l.7.7C.6 3.4.6 7.7 3.2 10.3zm6.6-2.9c1-1 1-2.7 0-3.7l.7-.7c1.4 1.4 1.4 3.7 0 5.2l-.7-.8zm1.5-5.2l.7-.7c2.2 2.2 2.2 5.9 0 8.1l-.7-.7c1.8-1.9 1.8-4.9 0-6.7zm2.2 8.9l-.7-.7c2.6-2.6 2.6-6.9 0-9.6l.7-.8c3.1 3 3.1 8 0 11.1zm0 0"/></svg>