<svg xmlns="http://www.w3.org/2000/svg" preserveAspectRatio="xMidYMid" width="22.03" height="20" viewBox="0 0 22.03 20"><defs/><path d="M21.975 2.111c-.452 2.953-.903 5.907-1.357 8.86-.153 1.096-1.095 2.005-2.14 2.06-4.609.002-9.219 0-13.828.001a1.592 1.592 0 0 1-1.206-.544c-.35-.395-.486-.973-.395-1.501.426-2.792.854-5.584 1.282-8.376.035-.258-.17-.532-.424-.526C2.8 2.061 1.693 2.061.586 2.049a.565.565 0 0 1-.556-.476C-.014 1.25.042.925.027.601A.584.584 0 0 1 .385.03c.077-.033.16-.036.242-.039h19.728c.544-.004 1.101.269 1.395.764.252.395.301.895.225 1.356zM4.97 15.566c.904-.216 1.904.287 2.316 1.167a2.363 2.363 0 0 1-.105 2.253c-.505.851-1.582 1.245-2.473.897-.9-.313-1.519-1.324-1.416-2.321.067-.961.787-1.811 1.678-1.996zm10.833-.001c.904-.212 1.896.299 2.307 1.175a2.383 2.383 0 0 1-.08 2.2c-.408.712-1.213 1.143-1.996 1.059a2.105 2.105 0 0 1-1.544-.944c-.412-.601-.497-1.427-.24-2.114.255-.696.859-1.234 1.553-1.376z" class="cls-1"/></svg>