<svg xmlns="http://www.w3.org/2000/svg" viewBox="0 0 16 16"><path d="M15.8 4.7c.2.2.2.4.2.7l-.7 3.8c0 .2-.1.4-.3.5s-.3.2-.5.2H4.7L4.5 11h9.3c.2 0 .4.1.6.2.2.2.2.4.2.6 0 .2-.1.4-.2.6-.2.2-.4.2-.6.2H3.5c-.2 0-.5-.1-.6-.3-.2-.2-.2-.4-.2-.7l.4-2.4-.6-6.7-1.9-.6c-.2 0-.4-.2-.5-.4S0 1.1 0 .9C.1.7.2.5.4.4S.8.3 1 .3l2.4.8c.2 0 .3.1.4.3.2.1.3.3.3.4l.1 1.3 11 1.2c.3.1.5.3.6.4zm-11 8.4c.4 0 .7.1.9.4.2.2.4.5.4.9s-.1.7-.4.9c-.2.3-.5.4-.9.4s-.7-.1-.9-.4c-.2-.3-.4-.6-.4-.9 0-.4.1-.7.4-.9.2-.3.5-.4.9-.4zm7.5 0c.4 0 .7.1.9.4.2.2.4.5.4.9s-.1.7-.4.9c-.2.3-.5.4-.9.4s-.7-.1-.9-.4c-.2-.3-.4-.6-.4-.9 0-.4.1-.7.4-.9.3-.3.6-.4.9-.4z"/></svg>