<svg xmlns="http://www.w3.org/2000/svg" viewBox="0 0 16 16"><path d="M15.1 6.4H1c-1.1 0-1-1.1-1-1.1 0-1 1.1-1 1.1-1h1.1s-.2 1.1 1 1.1h2.2c1.2-.1 1.1-1.1 1.1-1.1h3.1s0 1.1 1.2 1.1h2c1.1 0 1.2-1.1 1.2-1.1h1.2c.6 0 .8 1 .8 1 0 .9-.9 1.1-.9 1.1zm-2.8-2.1H11c-.1 0-.6-.2-.6-.5L8.2 1.6c0-.3 0-.5.5-.5h1.6s.5.2.5.5l1.9 2.2c.1.2.1.5-.4.5zm-6.6-.5c-.1.3-.5.5-.6.5H3.7c-.5 0-.5-.3-.5-.5L5 1.6c.2-.4.5-.6.5-.6H7c.6 0 .5.2.5.5L5.7 3.8zm8.2 10c-.2.6-1 1.2-1 1.2H3.3c-.4 0-1.1-1.2-1.1-1.2L1.1 7.5H15l-1.1 6.3zm-2.7-1c.3 0 .5-.2.5-.5s-.2-.5-.5-.5-.5.2-.5.5.2.5.5.5zm-1.1 1.1c.3 0 .5-.2.5-.5s-.2-.5-.5-.5-.5.2-.5.5.3.5.5.5zm.6-2.7c0-.3-.2-.5-.5-.5s-.5.2-.5.5.2.5.5.5.5-.2.5-.5zm-1.6 1.6c.3 0 .5-.2.5-.5s-.2-.5-.5-.5-.6.2-.6.5.3.5.6.5zM8 13.9c.3 0 .5-.2.5-.5s-.2-.6-.5-.6-.5.2-.5.5.2.6.5.6zm.5-2.7c0-.3-.2-.5-.5-.5s-.5.2-.5.5.2.5.5.5c.3.1.5-.2.5-.5zm-1.6 1.6c.3 0 .5-.2.5-.5s-.2-.5-.5-.5-.5.2-.5.5.2.5.5.5zm-1 1.1c.3 0 .5-.2.5-.5s-.2-.5-.5-.5-.5.2-.5.5.2.5.5.5zm.5-2.7c0-.3-.2-.5-.5-.5s-.5.2-.5.5.2.5.5.5.5-.2.5-.5zm-1.6 1.6c.3 0 .5-.2.5-.5s-.2-.5-.5-.5-.5.2-.5.5.2.5.5.5zm-1.1-1c.3 0 .5-.2.5-.5s-.2-.5-.5-.5-.5.2-.5.5c0 .2.2.5.5.5zm0-3.2c-.3 0-.5.2-.5.5s.2.5.5.5.5-.2.5-.5-.2-.5-.5-.5zm1.1 1c-.3 0-.5.2-.5.5s.2.5.5.5.5-.2.5-.5c0-.2-.2-.5-.5-.5zm1.1-1c-.3 0-.5.2-.5.5s.2.5.5.5.5-.2.5-.5-.2-.5-.5-.5zm1 1c-.3 0-.5.2-.5.5s.2.5.5.5.5-.2.5-.5c.1-.2-.2-.5-.5-.5zm1.1-1c-.3 0-.5.2-.5.5s.2.5.5.5.5-.2.5-.5-.2-.5-.5-.5zm1.1 1c-.3 0-.5.2-.5.5s.2.5.5.5.5-.2.5-.5c0-.2-.2-.5-.5-.5zm1-1c-.3 0-.5.2-.5.5s.2.5.5.5.5-.2.5-.5-.2-.5-.5-.5zm1.1 1c-.3 0-.5.2-.5.5s.2.5.5.5.5-.2.5-.5c.1-.2-.2-.5-.5-.5zm1.1-1c-.3 0-.5.2-.5.5s.2.5.5.5.5-.2.5-.5-.2-.5-.5-.5zm0 2.1c-.3 0-.5.2-.5.5s.2.5.5.5.5-.2.5-.5-.2-.5-.5-.5z"/></svg>