<svg xmlns="http://www.w3.org/2000/svg" viewBox="0 0 16 16"><path d="M12.2 8.5c-.1.3-.4.5-.7.5h-.2l-2.1-.6c-.3-.1-.5-.4-.5-.7V4.5c0-.4.3-.7.7-.7.4 0 .7.3.7.7v2.8l1.6.4c.4.1.6.4.5.8zM9.6 1.2c-2.3 0-4.3 1.2-5.5 3.1l.7 1.6c.7-2 2.6-3.4 4.8-3.4 2.8 0 5.1 2.3 5.1 5.1 0 2-1.2 3.7-2.8 4.6v1.5c2.4-.9 4.2-3.3 4.2-6-.1-3.6-3-6.5-6.5-6.5zm.3 13.3c-.8.8-3.8 0-6.7-2.9C.3 8.7-.5 5.7.3 4.9 1 4.2 1.8 3 3.1 4.6c1.3 1.6.6 2-.1 2.7-.5.5.5 1.8 1.6 2.8 1.1 1.1 2.3 2.1 2.8 1.6.7-.7 1.1-1.3 2.7-.1 1.7 1.4.5 2.2-.2 2.9zM2 5.4l-.5-.8-.1.1c-.1 0-.2.1-.3.2l-.2.2c0 .1-.1.2-.1.3-.1.1-.1.2-.2.3v.6c0 .1 0 .2.1.3 0 .1.1.3.2.4 0 .2.1.2.1.3 0 .1.1.1.1.1v-.1c0-.1-.1-.2-.1-.3v-.6c0-.1 0-.2.1-.2 0-.1.1-.1.1-.2s.1-.1.1-.1l.1-.1.1-.1c.1 0 .2-.1.3-.1.1-.1.1-.2.2-.2zm8.1 7.9l-.9-.5v.1c0 .1-.1.2-.1.3-.1.2-.2.4-.5.6H7.4l.1.1c.1 0 .2.1.3.1.1 0 .1.1.2.1s.2.1.2.1h.7c.1 0 .2 0 .3-.1.1 0 .2-.1.3-.1.1-.1.2-.1.2-.2l.2-.2s.1-.1.2-.3c0 .1 0 0 0 0zm0 0"/></svg>