<svg xmlns="http://www.w3.org/2000/svg" xmlns:xlink="http://www.w3.org/1999/xlink" preserveAspectRatio="xMidYMid" width="11.75" height="11.75" viewBox="0 0 11.75 11.75">
  <defs>
    <style>
      .cls-1 {
        fill: #ea202c;
        fill-rule: evenodd;
      }
    </style>
  </defs>
  <path d="M0.007,1.639 C0.547,1.097 1.088,0.556 1.630,0.015 C3.039,1.432 4.464,2.832 5.873,4.248 C7.286,2.836 8.699,1.423 10.111,0.011 C10.655,0.553 11.198,1.096 11.740,1.639 C10.328,3.052 8.915,4.464 7.503,5.877 C8.915,7.291 10.328,8.703 11.740,10.115 C11.198,10.659 10.655,11.202 10.111,11.744 C8.697,10.331 7.284,8.917 5.870,7.503 C4.453,8.912 3.044,10.327 1.630,11.740 C1.088,11.199 0.547,10.658 0.007,10.115 C1.419,8.703 2.832,7.291 4.244,5.877 C2.832,4.464 1.419,3.052 0.007,1.639 Z" class="cls-1"/>
</svg>
