<svg xmlns="http://www.w3.org/2000/svg" viewBox="0 0 16 16"><path d="M15.6 9.3c-1.7 1.8-3.3 3.5-5 5.3-.5.5-1.3.7-2 .5-.3-.1-.6-.4-.9-.6-2-1.6-3.9-3.3-5.9-4.9C1.1 9 .7 8.2.5 7.4c-.2-.5-.2-1-.2-1.5C.2 4.9.1 4 0 3-.1 1.9.9.8 2 .8h4.2c1.1.1 2.3.4 3.1 1.2 2 1.7 4.1 3.4 6.1 5.1.7.5.8 1.5.2 2.2zm-.7-1.9c-2-1.7-4-3.3-6.1-5-.8-.8-2-1.1-3.1-1-1.3 0-2.6 0-3.9.1-.6.1-1.2.7-1.1 1.4.1 1.3.2 2.6.4 3.9.2.9.6 1.8 1.4 2.4 2 1.7 4.1 3.4 6.1 5 .4.4 1.2.4 1.6-.1 1.6-1.7 3.3-3.5 4.9-5.2.3-.4.3-1.1-.2-1.5zm-9.4-.8c-.7.3-1.5.1-2.1-.4-.5-.4-.7-1.1-.5-1.7.2-.7.8-1.2 1.5-1.3.6-.1 1.3.1 1.7.6.4.4.6 1 .5 1.5-.1.6-.5 1-1.1 1.3zm.4-2c-.2-.7-1-1-1.6-.7-.6.2-.9.9-.7 1.4.2.6 1 .9 1.6.7.5-.2.9-.8.7-1.4z"/></svg>