<svg xmlns="http://www.w3.org/2000/svg" preserveAspectRatio="xMidYMid" width="22" height="20" viewBox="0 0 22 20"><defs/><path d="M21.409 11.948c-2.262 2.421-4.536 4.833-6.805 7.248-.891.974-2.535 1.077-3.544.23-2.835-2.352-5.658-4.719-8.491-7.073-.98-.776-1.606-1.92-1.956-3.102C.404 8.589.429 7.888.36 7.204.233 5.857.119 4.508-.009 3.16-.196 1.556 1.302.062 2.881.088 3.742.08 4.602.068 5.463.057 6.459.046 7.456.037 8.452 0c1.562.043 3.153.564 4.331 1.616 2.802 2.346 5.616 4.676 8.415 7.025.973.793 1.082 2.396.211 3.307zm-.724-2.157c-.177-.321-.491-.53-.763-.763-2.742-2.28-5.476-4.568-8.218-6.849C10.609 1.35 9.182 1.012 7.823 1.1c-1.714.042-3.431.025-5.143.084-.905.142-1.676 1.054-1.526 1.988.161 1.727.315 3.454.463 5.182.189 1.279.838 2.53 1.883 3.315 2.602 2.165 5.201 4.335 7.801 6.502.366.294.715.679 1.209.73.488.077.983-.138 1.301-.505 2.224-2.377 4.459-4.745 6.682-7.122a1.294 1.294 0 0 0 .192-1.483zM5.167 8.1c-.853-.459-1.423-1.426-1.333-2.402.069-1.05.878-1.96 1.874-2.248 1.286-.416 2.837.254 3.336 1.527.373.893.136 1.987-.554 2.661-.842.873-2.273 1.057-3.323.462zm.922-3.62c-.676.186-1.194.882-1.084 1.591.096.797.904 1.392 1.693 1.279.806-.062 1.484-.859 1.34-1.673-.119-.881-1.114-1.467-1.949-1.197z" class="cls-1"/></svg>