<svg xmlns="http://www.w3.org/2000/svg" viewBox="0 0 16 16"><path d="M15.3 2.5H.7c-.4 0-.7.3-.7.6v9.7c0 .4.3.7.7.7h14.7c.4 0 .7-.3.7-.7V3.1c-.1-.3-.4-.6-.8-.6zm-4.9 6c1.2.8 4.4 3.3 4.4 3.3.1.1.1.3.1.4-.1.1-.3.2-.4.1 0 0-3.4-2.5-4.7-3.3h-.1l-1.4 1.1c-.1.1-.2.1-.3.1-.1 0-.2 0-.3-.1L6.3 9h-.1c-1.3.9-4.7 3.4-4.7 3.4-.1.1-.4 0-.4-.1-.1-.2-.1-.4 0-.5 0 0 3.2-2.5 4.4-3.3.1 0 0-.1 0-.1L1 4.3c-.1-.1-.2-.4-.1-.6.1-.1.2-.1.3-.1.1 0 .2 0 .2.1l6.4 5.6H8l6.4-5.6c.1-.1.2-.1.2-.1.1 0 .2.1.3.2.1.2.1.4-.1.5l-4.4 4.2c0-.1 0-.1 0 0zm0 0"/></svg>