<svg xmlns="http://www.w3.org/2000/svg" preserveAspectRatio="xMidYMid" width="48" height="31" viewBox="0 0 48 31"><defs/><path d="M43.123 3.489a1.658 1.658 0 0 0-.41-1.165c-4.226 4.007-8.439 8.029-12.664 12.037 1.804 2.028 3.608 4.055 5.411 6.084-.414.476-.783.991-1.102 1.539-2.195-1.823-4.387-3.649-6.581-5.473-1.45 1.402-2.927 2.779-4.385 4.174-.485.472-1.318.467-1.797-.009-1.456-1.391-2.929-2.765-4.376-4.165-4.93 4.099-9.871 8.187-14.789 12.301.298.188.637.324.994.307H33.23a9.95 9.95 0 0 0 .606 1.878c-10.032 0-20.063-.001-30.094.001-.559.015-1.132-.024-1.65-.247C.877 30.277.014 29.034 0 27.726c-.003-8.151-.003-16.302 0-24.453C.007 1.766 1.159.376 2.629.077c.369-.081.747-.084 1.122-.079C16.424.003 29.097-.005 41.77.003c1.719.02 3.231 1.558 3.226 3.28.003 4.639.002 9.278.001 13.917a10.058 10.058 0 0 0-1.874-.194V3.489zm-41.251.004c.003 8.039-.001 16.08.002 24.12-.013.38.155.728.375 1.027 4.24-4.752 8.463-9.521 12.699-14.278-4.229-4.008-8.442-8.033-12.67-12.041-.269.33-.434.741-.406 1.172zm39.699-1.615H3.422a1.582 1.582 0 0 0-1.018.344c6.422 4.949 12.843 9.9 19.264 14.85.447.376 1.141.401 1.604.04 6.443-4.96 12.878-9.93 19.32-14.89a1.579 1.579 0 0 0-1.021-.344zm2.34 23.009c-.003-.96-.003-1.919 0-2.878 1.369 1.489 2.721 2.991 4.085 4.486a578.528 578.528 0 0 1-4.085 4.495c-.003-.961-.001-1.923-.002-2.884-1.289.011-2.649.17-3.752.879-.551.353-.991.885-1.168 1.513.145-1.59.617-3.253 1.793-4.413.811-.818 1.983-1.197 3.129-1.198z" class="cls-1"/></svg>