<svg xmlns="http://www.w3.org/2000/svg" viewBox="0 0 16 16"><path d="M15.9 2.6c-.1-.2-.2-.3-.4-.3L6.4.1c-.3-.1-.6.1-.7.4L2.3 9.3l1.2.4 3.3-8.3 7.9 2c-.6 1.5-1.8 4.6-2.9 7.6-1 2.6-1.5 3.5-2.6 3.7C7 15 7 12.2 7 12.2L0 9.4c-.4 3.1 2 3.9 2 3.9l5.1 2.3s.8.4 1.7.3c2.3-.1 3.2-1.8 4.2-4.5 1.5-3.9 3-8.3 3-8.4 0-.1 0-.3-.1-.4zm0 0"/><path d="M11.8 6.1h.2c.3 0 .5-.2.6-.5.1-.3-.1-.7-.4-.8l-2.8-.7c-.3-.1-.6.1-.7.4-.1.4.1.7.4.8l2.7.8zM7.6 7c-.1.3.1.7.4.8l2.6.9h.2c.3 0 .5-.2.6-.4.1-.3 0-.6-.4-.8l-2.6-.9c-.3-.1-.7.1-.8.4zm-.2 2.2c-.3-.1-.7 0-.8.4-.1.3.1.6.4.7l2.7.9h.2c.3 0 .5-.2.6-.4.1-.3-.1-.7-.4-.8l-2.7-.8zm-.1-5.8c.4 0 .7.3.7.6 0 .4-.3.7-.7.7-.4 0-.7-.3-.7-.7 0-.3.3-.6.7-.6zm-1 2.4c.4 0 .7.3.7.7 0 .4-.3.7-.7.7-.3 0-.6-.3-.6-.7 0-.4.3-.7.6-.7zm-1 2.6c.4 0 .7.3.7.6 0 .4-.3.7-.7.7-.4 0-.7-.3-.7-.7 0-.3.3-.6.7-.6zm0 0"/></svg>