<svg xmlns="http://www.w3.org/2000/svg" xmlns:xlink="http://www.w3.org/1999/xlink" preserveAspectRatio="xMidYMid" width="9" height="8.969" viewBox="0 0 9 8.969">
  <defs>
    <style>
      .cls-1 {
        fill: #ee321d;
        fill-rule: evenodd;
      }
    </style>
  </defs>
  <path d="M1.067,0.039 C1.119,-0.015 1.200,-0.034 1.271,-0.015 C1.346,0.002 1.409,0.052 1.462,0.105 C2.475,1.115 3.487,2.125 4.500,3.134 C5.520,2.118 6.539,1.100 7.559,0.084 C7.650,-0.007 7.815,-0.063 7.923,0.030 C8.265,0.370 8.606,0.711 8.948,1.051 C8.993,1.094 9.021,1.157 9.013,1.220 C9.008,1.316 8.948,1.398 8.883,1.463 C7.873,2.470 6.863,3.477 5.854,4.483 C6.846,5.474 7.839,6.464 8.832,7.454 C8.921,7.537 9.016,7.637 9.014,7.767 C9.017,7.846 8.961,7.908 8.907,7.957 C8.585,8.277 8.264,8.598 7.943,8.919 C7.887,8.977 7.800,9.002 7.722,8.983 C7.633,8.966 7.564,8.902 7.504,8.839 C6.503,7.840 5.502,6.842 4.500,5.843 C3.482,6.857 2.465,7.873 1.447,8.887 C1.375,8.960 1.268,9.008 1.165,8.982 C1.098,8.969 1.053,8.912 1.007,8.868 C0.686,8.547 0.364,8.227 0.044,7.907 C-0.066,7.796 -0.001,7.618 0.099,7.524 C1.114,6.510 2.131,5.497 3.147,4.483 C2.131,3.470 1.113,2.457 0.098,1.443 C0.003,1.351 -0.063,1.185 0.033,1.071 C0.377,0.726 0.723,0.383 1.067,0.039 Z" class="cls-1"/>
</svg>
