<svg xmlns="http://www.w3.org/2000/svg" preserveAspectRatio="xMidYMid" width="9" height="8.969" viewBox="0 0 9 8.969"><defs/><path d="M1.067.039c.052-.054.133-.073.204-.054a.41.41 0 0 1 .191.12L4.5 3.134 7.559.084c.091-.091.256-.147.364-.054l1.025 1.021a.204.204 0 0 1 .065.169c-.005.096-.065.178-.13.243l-3.029 3.02 2.978 2.971c.089.083.184.183.182.313.003.079-.053.141-.107.19l-.964.962a.235.235 0 0 1-.221.064c-.089-.017-.158-.081-.218-.144L4.5 5.843 1.447 8.887c-.072.073-.179.121-.282.095-.067-.013-.112-.07-.158-.114l-.963-.961c-.11-.111-.045-.289.055-.383l3.048-3.041C2.131 3.47 1.113 2.457.098 1.443c-.095-.092-.161-.258-.065-.372C.377.726.723.383 1.067.039z" class="cls-1"/></svg>