<svg xmlns="http://www.w3.org/2000/svg" preserveAspectRatio="xMidYMid" width="15" height="15" viewBox="0 0 15 15"><defs/><path d="M2.95 1.226A6.96 6.96 0 0 1 6.872 0a6.955 6.955 0 0 1 3.887 1.196 6.858 6.858 0 0 1 2.815 4.024c.522 2.022.053 4.282-1.256 5.915 1.191 1.179 1.217 1.213 2.405 2.396a.856.856 0 0 1 .218.934c-.179.544-.976.709-1.371.3-1.202-1.197-1.246-1.243-2.444-2.442-1.128.911-2.571 1.401-4.015 1.462a6.983 6.983 0 0 1-4.082-1.164 6.949 6.949 0 0 1-2.438-2.87A6.893 6.893 0 0 1 2.95 1.226zm3.555.475c-1.902.101-3.658 1.373-4.41 3.108-.456 1.016-.54 2.18-.303 3.263.338 1.481 1.371 2.775 2.724 3.463.933.489 2.02.648 3.06.516 1.655-.207 3.171-1.278 3.927-2.759.5-.918.67-1.995.551-3.029-.157-1.451-.993-2.8-2.186-3.634a5.155 5.155 0 0 0-3.363-.928z" class="cls-1"/></svg>