<svg xmlns="http://www.w3.org/2000/svg" preserveAspectRatio="xMidYMid" width="32" height="17" viewBox="0 0 32 17"><defs/><path d="M31.141 14.983c-.469.091-.95.032-1.424.049-.264 1.068-1.185 1.887-2.205 1.955-1.151.125-2.303-.741-2.595-1.955-4.291-.002-8.582-.002-12.871 0-.265 1.063-1.176 1.882-2.192 1.955-1.158.13-2.315-.737-2.609-1.958-.6-.004-1.202.015-1.802-.005-.589-.004-1.128-.591-1.069-1.24.022-1.035-.036-2.074.03-3.106.277-.214.679-.13.995-.068l.063.083c.05.902-.009 1.809.025 2.712.003.218.145.43.356.44.47.042.942.01 1.413.017.196-.791.728-1.478 1.438-1.777.874-.397 1.953-.185 2.634.532.346.336.553.801.692 1.275l9.422-.001c.247.026.567-.112.547-.433.026-3.299-.026-6.598.032-9.896-.009-.652.014-1.306-.009-1.958.004-.22-.15-.455-.372-.432-5.609-.059-11.22-.019-16.83-.029-.311-.015-.717.091-.922-.241-.295-.38.08-.964.507-.899C10.283.004 16.171 0 22.06.005c.479-.025.965.35 1.039.875.051.399.016.804.023 1.206 1.082.003 2.162-.003 3.242.002.661.011 1.247.472 1.599 1.054 1.219 2.006 2.484 3.98 3.727 5.969.114.211.318.395.305.66.004 1.34.003 2.681.001 4.022.027.552-.354 1.083-.855 1.19zm-20.147-.648c-.014-.908-.948-1.546-1.724-1.277-.572.147-1.005.754-.982 1.392-.024.783.649 1.468 1.367 1.425.746.034 1.434-.725 1.339-1.54zm16.456 1.534c.736-.035 1.336-.828 1.214-1.619-.071-.886-.999-1.458-1.756-1.183-.595.17-1.017.838-.942 1.502.033.793.77 1.404 1.484 1.3zm3.444-5.648c.034-.28-.168-.485-.289-.705-1.306-2.089-2.59-4.192-3.881-6.289-1.015 0-2.031-.006-3.047 0-.245-.007-.562.127-.545.446a599.09 599.09 0 0 0-.028 9.76c-.02.275.237.433.461.449.45.026.902.001 1.355.01.251-1.2 1.351-2.075 2.479-2.003 1.055.023 2.022.864 2.273 1.974.318-.006.637.022.954-.016.228-.092.277-.38.268-.612v-3.014zM12.827 2.864c.181.212.157.579-.041.77-.211.217-.525.165-.791.177-3.832-.015-7.666.019-11.496-.017-.553.012-.698-.919-.172-1.094.154-.06.319-.057.481-.06 3.802.004 7.605.001 11.408.002.215.001.468.021.611.222zM2.75 5.418c3.939.006 7.877-.003 11.815.004.187-.008.35.133.441.3.173.309-.035.753-.357.811-.165.033-.333.025-.501.028-3.839-.011-7.679.011-11.519-.011-.479.019-.719-.733-.313-1.024.122-.11.285-.111.434-.108zm1.343 2.75c2.122.007 4.244-.003 6.366.004.366-.027.663.45.475.802-.087.246-.349.342-.574.334-2.156-.003-4.313.007-6.469-.004-.512.029-.74-.791-.281-1.054.143-.103.321-.075.483-.082z" class="cls-1"/></svg>