<svg xmlns="http://www.w3.org/2000/svg" viewBox="0 0 16 16"><path d="M15.3 12.4c-.3.1-.6.1-.9.1-.1.4-.2.8-.5 1.2-.5.5-1.2.7-1.9.5-.8-.2-1.4-.9-1.5-1.7H7.4c-.1.6-.4 1.1-.9 1.5-.5.3-1.1.4-1.7.2-.7-.2-1.2-.9-1.3-1.6H1.7c-.5 0-1-.2-1.3-.6-.3-.5-.4-1-.4-1.5V7.1c0-1.1.3-2.1.9-3 .3-.3.7-.7 1.1-.7h3c0-.3 0-.7.1-1 .3-.4.8-.7 1.3-.7h8.2c.5 0 1 .3 1.1.8.1.2.1.5.1.8v5.6c0 .1 0 .1.1.2s.1.3.1.5v1.7c0 .5-.3.9-.7 1.1zm-3.6 1.1c.5.3 1.2.3 1.7-.1.4-.4.6-1 .3-1.6-.2-.6-1-1-1.6-.8-.5.1-.9.5-1 1.1-.1.5.1 1.1.6 1.4zm-1.2-1.6c.1-.4.3-.8.6-1.1H6.7c.3.3.6.7.7 1.1h3.1zM5.1 9.6V4.1h-3c-.3-.1-.5.1-.6.3-.6.7-.9 1.7-.9 2.7v3.3c0 .4 0 .8.3 1.2.2.3.6.4 1 .4h1.7c.2-.9.9-1.5 1.8-1.6-.2-.3-.3-.6-.3-.8zm.1 1.3c-.5.1-.9.5-1 1s0 1 .4 1.3c.3.4.9.5 1.4.4.7-.2 1.1-.9 1-1.6-.3-.7-1.1-1.3-1.8-1.1zM15 2.5c-.1-.1-.3-.2-.5-.2H6.1c-.3.1-.5.4-.5.7v6.5c0 .4.3.8.7.8h8.1c.2 0 .4 0 .6-.2.2-.1.2-.4.2-.6V3.1c.1-.2 0-.5-.2-.6zm-.1 8.3c-.4.1-.8 0-1.2 0 .3.3.6.7.7 1.1h.5c.3 0 .6-.3.6-.6v-.8l-.6.3zm-13.8-2V7.1c0-.7.2-1.4.6-1.9.2-.3.5-.5.8-.6h1.7c.2 0 .3.2.3.3v3.9c0 .2-.1.3-.3.3H1.4c-.1 0-.3-.1-.3-.3zM4 8.5V5.1H2.7c-.1 0-.3.1-.3.2-.4.5-.7 1.1-.7 1.6v1.6H4z"/></svg>