<svg xmlns="http://www.w3.org/2000/svg" viewBox="0 0 16 16"><path d="M15.2 2.9c-1.7 1.7-1.3 1.7-2.7.3-.2-.2-.2-.5 0-.7l1.1-1.1C14 1 12.8.2 11.9.8c-1.6 1.1-1.6 1.2-1.7 3.6l-.6.6c.1.2.2.3.2.5.2.7.4 1.2.1 1.8.2.1.5.5.6.6l1.7-1.7c2.4-.1 2.5-.1 3.6-1.7.6-.8-.2-2-.6-1.6zm-9.5 7.4c.1-.5.5-1 1.1-1.1.1-.5.5-1 1.1-1.1 0 0 0-.1.1-.3-.3-.1-.5-.3-.6-.6l-3.5 3.5-2.5 2.5c-.5.5-.5 1.4 0 1.9s1.4.5 1.9 0L5.5 13l-.5-.5c-.7-.7-.3-2 .7-2.2zm-3.2 4.4c-1 0-1-1.5 0-1.5.4 0 .7.3.7.7 0 .5-.3.8-.7.8zm0 0"/><path d="M9.5 7.8c-.3.2-.6.3-1 .2-.2.3-.1.7.1 1-.7-.8-1.8.3-1.1 1-.7-.7-1.8.4-1.1 1.1-.7-.7-1.8.4-1.1 1.1L7.1 14c.7.7 1.8-.4 1.1-1.1.7.7 1.8-.4 1.1-1.1.2.2.4.2.6.2.7 0 1-.8.5-1.3.7.7 1.8-.4 1.1-1.1-.2-.1-1.8-1.7-2-1.8zm-7.8-.2c-.2.2-.2.6 0 .9l1.7 1.7L7.6 6s.1.1.1.2c.2.6.3 1.3 1 1.3.2 0 .4-.1.6-.2.4-.4.2-.9 0-1.5C9 4.7 8.1 4.1 7.1 4.2l-2 .1c-.1 0-3.3 3.3-3.4 3.3zm2-2.9c.5-.5-.1-1-.6-1.5-.2-.2-.6-.2-.9 0l-2 2c-.2.2-.2.6 0 .9 1.3 1.2.9 1.2 3.5-1.4zm0 0"/></svg>