<svg xmlns="http://www.w3.org/2000/svg" viewBox="0 0 16 16"><path d="M14.9 15.4c0-.6-.7-1.5-1.7-1.8.4-.3.7-.8.7-1.3 0-.7-.6-1.3-1.3-1.3-.7 0-1.3.6-1.3 1.3 0 .5.3 1.1.7 1.3-1 .3-1.7 1.1-1.7 1.8 0 .8 4.6.8 4.6 0zM4.1 2.9c.6 0 1-.7 1-1.2 0-.6-.5-1-1-1-.6 0-1 .5-1 1s.5 1.2 1 1.2zm0 0"/><path d="M14.9 5.9V1.5c0-.4-.3-.7-.7-.7h-2.8V.3c0-.2-.1-.3-.3-.3-.2 0-.3.1-.3.3v.5H8c-.4 0-.7.3-.7.7v2.2l-1.4-.4C5.8 3.3 5 3 4.3 3l-.1.2.3 2.1-.4.6-.3-.6.3-2.1L4 3c-.8 0-1.6.3-1.6.3h-.1l-.1.1v.2l-.7 2.9c-.1.3 0 .5.3.5h.1c.1 0 .3-.1.4-.3L2.9 4H3v2.8l-.3 4c0 .2.1.3.2.4-.4.2-.8.6-.8 1.2 0 .5.3 1.1.7 1.3-1 .3-1.7 1.1-1.7 1.8 0 .8 4.6.8 4.6 0 0-.6-.7-1.5-1.7-1.8.4-.3.7-.8.7-1.3 0-.6-.5-1.2-1.1-1.3 0-.1.1-.1.1-.2L4 7.3h.4l.3 3.6c0 .3.2.5.5.5s.5-.3.5-.5l-.3-4V4c.1 0 .2.1.2.1l1.7.6V6c0 .4.3.7.7.7h1.3L8.2 11v.1H8c-.7 0-1.3.6-1.3 1.3 0 .5.3 1.1.7 1.3-1 .3-1.7 1.1-1.7 1.8 0 .8 4.6.8 4.6 0 0-.6-.7-1.5-1.7-1.8.4-.3.7-.8.7-1.3s-.2-.9-.6-1.1l.1-.1L10 6.7h.9v3.2c0 .2.1.3.3.3.2 0 .3-.1.3-.3V6.6h.9l1.2 4.5c0 .1.1.2.3.2h.1c.1 0 .2-.2.2-.3L13 6.7h1.3c.3-.1.6-.4.6-.8zM8 6.3c-.2 0-.4-.2-.4-.4V4.7h.1c.2 0 .3-.1.4-.3.1-.1 0-.4-.2-.4l-.2-.1V1.5c0-.2.2-.4.4-.4h6.2c.2 0 .4.2.4.4v4.4c0 .2-.2.4-.4.4H8zm0 0"/></svg>