<svg xmlns="http://www.w3.org/2000/svg" viewBox="0 0 16 16"><path d="M11.9 6c-.2 1-.8 1.2-1.1 1.2-.2.4-.6 1.2-1 1.6-.3.1-.5.2-.7.3-.4.1-.7.2-1.1.2-.4 0-.7-.1-1.1-.2-.2-.1-.4-.2-.6-.4-.4-.4-.8-1.2-1-1.6-.3 0-.9-.2-1.2-1.1-.1-.6-.1-1 .1-1.3l.3-.3V4c-.1-.2-.4-.7-.1-1.6.3-.9 1-1.1 1.4-1.1.1-.2.3-.5.7-.8C7 .2 7.6 0 8.2 0c.8 0 1.5.3 2.2.8 1.1.8 1 2.6 1 3 0 .3.1.5.1.7l.3.3c.2.2.2.6.1 1.2zm3.2 7.1v2.6c0 .2-.2.4-.4.4H1.2c-.2 0-.4-.2-.4-.4v-2.6c0-1.1.6-2 1.6-2.4l3.2-1.3h.3c.1 0 .2.1.2.2l.9 2.2.2-.5-.3-.6v-.3c.1-.1.2-.2.3-.2h1.6c.1 0 .2.1.3.2.1.1.1.2 0 .3l-.3.6.2.5.8-2.2c0-.1.1-.2.2-.2h.3l3.2 1.3c1 .4 1.6 1.3 1.6 2.4zm-1.9.2c0-.2-.2-.4-.4-.4h-2.5c-.2 0-.4.2-.4.4v1.1c0 .2.2.4.4.4h2.5c.2 0 .4-.2.4-.4v-1.1zm0 0"/></svg>