<svg class="svg-sprites" id="skin-sprite" xmlns="http://www.w3.org/2000/svg" xmlns:xlink="http://www.w3.org/1999/xlink"><symbol viewBox="0 0 16 16" id="alarmes-icon" xmlns="http://www.w3.org/2000/svg"><path d="M7 6.8l-2.9 7.7h7.8L9 6.8c.3-.3.6-.7.6-1.2C9.6 4.7 8.9 4 8 4c-.9 0-1.6.7-1.6 1.6 0 .5.3.9.6 1.2zm-1.4 6.6l1-2.7h2.8l1 2.7H5.6zM9 9.7H7l1-2.6 1 2.6zM3.8 15h8.3v1H3.8v-1zM5.4 2.9l.7.7c-1 1-1 2.7 0 3.7l-.7.8C4 6.7 4 4.4 5.4 2.9zM3.9 1.5l.7.7C2.9 4 2.9 7 4.7 8.8l-.8.8c-2.2-2.3-2.2-5.9 0-8.1zm-.7 8.8l-.7.7c-3-3-3-8 0-11.1l.7.7C.6 3.4.6 7.7 3.2 10.3zm6.6-2.9c1-1 1-2.7 0-3.7l.7-.7c1.4 1.4 1.4 3.7 0 5.2l-.7-.8zm1.5-5.2l.7-.7c2.2 2.2 2.2 5.9 0 8.1l-.7-.7c1.8-1.9 1.8-4.9 0-6.7zm2.2 8.9l-.7-.7c2.6-2.6 2.6-6.9 0-9.6l.7-.8c3.1 3 3.1 8 0 11.1zm0 0"/></symbol><symbol viewBox="0 0 16 16" id="arrow-next" xmlns="http://www.w3.org/2000/svg"><path class="bst0" d="M11.9 16L3.7 8l8.2-8 .4.4L4.5 8l7.8 7.6-.4.4zm0 0"/></symbol><symbol viewBox="0 0 16 16" id="arrow-prev" xmlns="http://www.w3.org/2000/svg"><path class="cst0" d="M4.1 0l8.2 8-8.2 8-.4-.4L11.5 8 3.7.4l.4-.4z"/></symbol><symbol viewBox="0 0 16 16" id="cart-icon" xmlns="http://www.w3.org/2000/svg"><path d="M15.8 4.7c.2.2.2.4.2.7l-.7 3.8c0 .2-.1.4-.3.5s-.3.2-.5.2H4.7L4.5 11h9.3c.2 0 .4.1.6.2.2.2.2.4.2.6 0 .2-.1.4-.2.6-.2.2-.4.2-.6.2H3.5c-.2 0-.5-.1-.6-.3-.2-.2-.2-.4-.2-.7l.4-2.4-.6-6.7-1.9-.6c-.2 0-.4-.2-.5-.4S0 1.1 0 .9C.1.7.2.5.4.4S.8.3 1 .3l2.4.8c.2 0 .3.1.4.3.2.1.3.3.3.4l.1 1.3 11 1.2c.3.1.5.3.6.4zm-11 8.4c.4 0 .7.1.9.4.2.2.4.5.4.9s-.1.7-.4.9c-.2.3-.5.4-.9.4s-.7-.1-.9-.4c-.2-.3-.4-.6-.4-.9 0-.4.1-.7.4-.9.2-.3.5-.4.9-.4zm7.5 0c.4 0 .7.1.9.4.2.2.4.5.4.9s-.1.7-.4.9c-.2.3-.5.4-.9.4s-.7-.1-.9-.4c-.2-.3-.4-.6-.4-.9 0-.4.1-.7.4-.9.3-.3.6-.4.9-.4z"/></symbol><symbol viewBox="0 0 16 16" id="clock-icon" xmlns="http://www.w3.org/2000/svg"><path d="M12.2 8.5c-.1.3-.4.5-.7.5h-.2l-2.1-.6c-.3-.1-.5-.4-.5-.7V4.5c0-.4.3-.7.7-.7.4 0 .7.3.7.7v2.8l1.6.4c.4.1.6.4.5.8zM9.6 1.2c-2.3 0-4.3 1.2-5.5 3.1l.7 1.6c.7-2 2.6-3.4 4.8-3.4 2.8 0 5.1 2.3 5.1 5.1 0 2-1.2 3.7-2.8 4.6v1.5c2.4-.9 4.2-3.3 4.2-6-.1-3.6-3-6.5-6.5-6.5zm.3 13.3c-.8.8-3.8 0-6.7-2.9C.3 8.7-.5 5.7.3 4.9 1 4.2 1.8 3 3.1 4.6c1.3 1.6.6 2-.1 2.7-.5.5.5 1.8 1.6 2.8 1.1 1.1 2.3 2.1 2.8 1.6.7-.7 1.1-1.3 2.7-.1 1.7 1.4.5 2.2-.2 2.9zM2 5.4l-.5-.8-.1.1c-.1 0-.2.1-.3.2l-.2.2c0 .1-.1.2-.1.3-.1.1-.1.2-.2.3v.6c0 .1 0 .2.1.3 0 .1.1.3.2.4 0 .2.1.2.1.3 0 .1.1.1.1.1v-.1c0-.1-.1-.2-.1-.3v-.6c0-.1 0-.2.1-.2 0-.1.1-.1.1-.2s.1-.1.1-.1l.1-.1.1-.1c.1 0 .2-.1.3-.1.1-.1.1-.2.2-.2zm8.1 7.9l-.9-.5v.1c0 .1-.1.2-.1.3-.1.2-.2.4-.5.6H7.4l.1.1c.1 0 .2.1.3.1.1 0 .1.1.2.1s.2.1.2.1h.7c.1 0 .2 0 .3-.1.1 0 .2-.1.3-.1.1-.1.2-.1.2-.2l.2-.2s.1-.1.2-.3c0 .1 0 0 0 0zm0 0"/></symbol><symbol viewBox="0 0 16 16" id="i-grid" xmlns="http://www.w3.org/2000/svg"><path d="M9.1 16V9.1H16V16H9.1zm0-16H16v6.9H9.1V0zM0 9.1h6.9V16H0V9.1zM0 0h6.9v6.9H0V0z"/></symbol><symbol viewBox="0 0 16 16" id="i-list" xmlns="http://www.w3.org/2000/svg"><path d="M0 14.2v-1.8h16v1.8H0zm0-7.1h16v1.8H0V7.1zm0-5.3h16v1.8H0V1.8z"/></symbol><symbol viewBox="0 0 16 16" id="mail-icon" xmlns="http://www.w3.org/2000/svg"><path d="M15.3 2.5H.7c-.4 0-.7.3-.7.6v9.7c0 .4.3.7.7.7h14.7c.4 0 .7-.3.7-.7V3.1c-.1-.3-.4-.6-.8-.6zm-4.9 6c1.2.8 4.4 3.3 4.4 3.3.1.1.1.3.1.4-.1.1-.3.2-.4.1 0 0-3.4-2.5-4.7-3.3h-.1l-1.4 1.1c-.1.1-.2.1-.3.1-.1 0-.2 0-.3-.1L6.3 9h-.1c-1.3.9-4.7 3.4-4.7 3.4-.1.1-.4 0-.4-.1-.1-.2-.1-.4 0-.5 0 0 3.2-2.5 4.4-3.3.1 0 0-.1 0-.1L1 4.3c-.1-.1-.2-.4-.1-.6.1-.1.2-.1.3-.1.1 0 .2 0 .2.1l6.4 5.6H8l6.4-5.6c.1-.1.2-.1.2-.1.1 0 .2.1.3.2.1.2.1.4-.1.5l-4.4 4.2c0-.1 0-.1 0 0zm0 0"/></symbol><symbol viewBox="0 0 16 16" id="project-icon" xmlns="http://www.w3.org/2000/svg"><path d="M15.9 2.6c-.1-.2-.2-.3-.4-.3L6.4.1c-.3-.1-.6.1-.7.4L2.3 9.3l1.2.4 3.3-8.3 7.9 2c-.6 1.5-1.8 4.6-2.9 7.6-1 2.6-1.5 3.5-2.6 3.7C7 15 7 12.2 7 12.2L0 9.4c-.4 3.1 2 3.9 2 3.9l5.1 2.3s.8.4 1.7.3c2.3-.1 3.2-1.8 4.2-4.5 1.5-3.9 3-8.3 3-8.4 0-.1 0-.3-.1-.4zm0 0"/><path d="M11.8 6.1h.2c.3 0 .5-.2.6-.5.1-.3-.1-.7-.4-.8l-2.8-.7c-.3-.1-.6.1-.7.4-.1.4.1.7.4.8l2.7.8zM7.6 7c-.1.3.1.7.4.8l2.6.9h.2c.3 0 .5-.2.6-.4.1-.3 0-.6-.4-.8l-2.6-.9c-.3-.1-.7.1-.8.4zm-.2 2.2c-.3-.1-.7 0-.8.4-.1.3.1.6.4.7l2.7.9h.2c.3 0 .5-.2.6-.4.1-.3-.1-.7-.4-.8l-2.7-.8zm-.1-5.8c.4 0 .7.3.7.6 0 .4-.3.7-.7.7-.4 0-.7-.3-.7-.7 0-.3.3-.6.7-.6zm-1 2.4c.4 0 .7.3.7.7 0 .4-.3.7-.7.7-.3 0-.6-.3-.6-.7 0-.4.3-.7.6-.7zm-1 2.6c.4 0 .7.3.7.6 0 .4-.3.7-.7.7-.4 0-.7-.3-.7-.7 0-.3.3-.6.7-.6zm0 0"/></symbol><symbol viewBox="0 0 16 16" id="system-icon" xmlns="http://www.w3.org/2000/svg"><path d="M15.2 2.9c-1.7 1.7-1.3 1.7-2.7.3-.2-.2-.2-.5 0-.7l1.1-1.1C14 1 12.8.2 11.9.8c-1.6 1.1-1.6 1.2-1.7 3.6l-.6.6c.1.2.2.3.2.5.2.7.4 1.2.1 1.8.2.1.5.5.6.6l1.7-1.7c2.4-.1 2.5-.1 3.6-1.7.6-.8-.2-2-.6-1.6zm-9.5 7.4c.1-.5.5-1 1.1-1.1.1-.5.5-1 1.1-1.1 0 0 0-.1.1-.3-.3-.1-.5-.3-.6-.6l-3.5 3.5-2.5 2.5c-.5.5-.5 1.4 0 1.9s1.4.5 1.9 0L5.5 13l-.5-.5c-.7-.7-.3-2 .7-2.2zm-3.2 4.4c-1 0-1-1.5 0-1.5.4 0 .7.3.7.7 0 .5-.3.8-.7.8zm0 0"/><path d="M9.5 7.8c-.3.2-.6.3-1 .2-.2.3-.1.7.1 1-.7-.8-1.8.3-1.1 1-.7-.7-1.8.4-1.1 1.1-.7-.7-1.8.4-1.1 1.1L7.1 14c.7.7 1.8-.4 1.1-1.1.7.7 1.8-.4 1.1-1.1.2.2.4.2.6.2.7 0 1-.8.5-1.3.7.7 1.8-.4 1.1-1.1-.2-.1-1.8-1.7-2-1.8zm-7.8-.2c-.2.2-.2.6 0 .9l1.7 1.7L7.6 6s.1.1.1.2c.2.6.3 1.3 1 1.3.2 0 .4-.1.6-.2.4-.4.2-.9 0-1.5C9 4.7 8.1 4.1 7.1 4.2l-2 .1c-.1 0-3.3 3.3-3.4 3.3zm2-2.9c.5-.5-.1-1-.6-1.5-.2-.2-.6-.2-.9 0l-2 2c-.2.2-.2.6 0 .9 1.3 1.2.9 1.2 3.5-1.4zm0 0"/></symbol><symbol viewBox="0 0 16 16" id="training-icon" xmlns="http://www.w3.org/2000/svg"><path d="M14.9 15.4c0-.6-.7-1.5-1.7-1.8.4-.3.7-.8.7-1.3 0-.7-.6-1.3-1.3-1.3-.7 0-1.3.6-1.3 1.3 0 .5.3 1.1.7 1.3-1 .3-1.7 1.1-1.7 1.8 0 .8 4.6.8 4.6 0zM4.1 2.9c.6 0 1-.7 1-1.2 0-.6-.5-1-1-1-.6 0-1 .5-1 1s.5 1.2 1 1.2zm0 0"/><path d="M14.9 5.9V1.5c0-.4-.3-.7-.7-.7h-2.8V.3c0-.2-.1-.3-.3-.3-.2 0-.3.1-.3.3v.5H8c-.4 0-.7.3-.7.7v2.2l-1.4-.4C5.8 3.3 5 3 4.3 3l-.1.2.3 2.1-.4.6-.3-.6.3-2.1L4 3c-.8 0-1.6.3-1.6.3h-.1l-.1.1v.2l-.7 2.9c-.1.3 0 .5.3.5h.1c.1 0 .3-.1.4-.3L2.9 4H3v2.8l-.3 4c0 .2.1.3.2.4-.4.2-.8.6-.8 1.2 0 .5.3 1.1.7 1.3-1 .3-1.7 1.1-1.7 1.8 0 .8 4.6.8 4.6 0 0-.6-.7-1.5-1.7-1.8.4-.3.7-.8.7-1.3 0-.6-.5-1.2-1.1-1.3 0-.1.1-.1.1-.2L4 7.3h.4l.3 3.6c0 .3.2.5.5.5s.5-.3.5-.5l-.3-4V4c.1 0 .2.1.2.1l1.7.6V6c0 .4.3.7.7.7h1.3L8.2 11v.1H8c-.7 0-1.3.6-1.3 1.3 0 .5.3 1.1.7 1.3-1 .3-1.7 1.1-1.7 1.8 0 .8 4.6.8 4.6 0 0-.6-.7-1.5-1.7-1.8.4-.3.7-.8.7-1.3s-.2-.9-.6-1.1l.1-.1L10 6.7h.9v3.2c0 .2.1.3.3.3.2 0 .3-.1.3-.3V6.6h.9l1.2 4.5c0 .1.1.2.3.2h.1c.1 0 .2-.2.2-.3L13 6.7h1.3c.3-.1.6-.4.6-.8zM8 6.3c-.2 0-.4-.2-.4-.4V4.7h.1c.2 0 .3-.1.4-.3.1-.1 0-.4-.2-.4l-.2-.1V1.5c0-.2.2-.4.4-.4h6.2c.2 0 .4.2.4.4v4.4c0 .2-.2.4-.4.4H8zm0 0"/></symbol><symbol viewBox="0 0 16 16" id="visit-icon" xmlns="http://www.w3.org/2000/svg"><path d="M11.9 6c-.2 1-.8 1.2-1.1 1.2-.2.4-.6 1.2-1 1.6-.3.1-.5.2-.7.3-.4.1-.7.2-1.1.2-.4 0-.7-.1-1.1-.2-.2-.1-.4-.2-.6-.4-.4-.4-.8-1.2-1-1.6-.3 0-.9-.2-1.2-1.1-.1-.6-.1-1 .1-1.3l.3-.3V4c-.1-.2-.4-.7-.1-1.6.3-.9 1-1.1 1.4-1.1.1-.2.3-.5.7-.8C7 .2 7.6 0 8.2 0c.8 0 1.5.3 2.2.8 1.1.8 1 2.6 1 3 0 .3.1.5.1.7l.3.3c.2.2.2.6.1 1.2zm3.2 7.1v2.6c0 .2-.2.4-.4.4H1.2c-.2 0-.4-.2-.4-.4v-2.6c0-1.1.6-2 1.6-2.4l3.2-1.3h.3c.1 0 .2.1.2.2l.9 2.2.2-.5-.3-.6v-.3c.1-.1.2-.2.3-.2h1.6c.1 0 .2.1.3.2.1.1.1.2 0 .3l-.3.6.2.5.8-2.2c0-.1.1-.2.2-.2h.3l3.2 1.3c1 .4 1.6 1.3 1.6 2.4zm-1.9.2c0-.2-.2-.4-.4-.4h-2.5c-.2 0-.4.2-.4.4v1.1c0 .2.2.4.4.4h2.5c.2 0 .4-.2.4-.4v-1.1zm0 0"/></symbol></svg>