<svg class="svg-sprites" id="skin-sprite" xmlns="http://www.w3.org/2000/svg" xmlns:xlink="http://www.w3.org/1999/xlink"><symbol preserveAspectRatio="xMidYMid" viewBox="0 0 11 7" id="arrow-down-icon"><path d="M9.632 0L11 1.38 5.43 7 0 1.52 1.37.14l4.06 4.1L9.632 0z" class="acls-1"/></symbol><symbol preserveAspectRatio="xMidYMid" viewBox="0 0 18 18" id="arrow-elipse"><path d="M9 18A9 9 0 1 1 9 0a9 9 0 0 1 0 18zm.057-13.502l-4.56 4.338 1.12 1.067 2.477-2.357v5.204h1.812V7.438l2.477 2.355 1.12-1.066c-1.484-1.41-2.965-2.82-4.446-4.23z" class="bcls-1"/></symbol><symbol preserveAspectRatio="xMidYMid" viewBox="0 0 9 9" id="arrow-up-icon"><path d="M7.883 5.294c-.827-.785-1.652-1.57-2.477-2.356V9H3.594V3.046L1.118 5.403l-1.12-1.067 4.56-4.338L9 4.228l-1.12 1.066z" class="ccls-1"/></symbol><symbol preserveAspectRatio="xMidYMid" viewBox="0 0 22.03 20" id="cart-icon"><path d="M21.975 2.11c-.452 2.954-.903 5.908-1.357 8.86-.153 1.097-1.095 2.006-2.14 2.06-4.61.003-9.22 0-13.828.002a1.592 1.592 0 0 1-1.206-.544c-.35-.395-.486-.973-.395-1.5.425-2.793.853-5.585 1.28-8.377.036-.257-.17-.53-.423-.525C2.8 2.06 1.693 2.06.587 2.05a.565.565 0 0 1-.557-.477C-.014 1.25.042.925.027.6A.584.584 0 0 1 .385.03c.077-.033.16-.036.242-.04h19.728c.544-.003 1.1.27 1.395.765.252.395.3.895.225 1.356zM4.97 15.567c.904-.216 1.904.287 2.316 1.167a2.363 2.363 0 0 1-.105 2.253c-.504.85-1.58 1.245-2.472.897-.9-.313-1.52-1.324-1.416-2.32.067-.962.787-1.812 1.678-1.997zm10.833 0c.904-.213 1.896.298 2.307 1.174a2.383 2.383 0 0 1-.08 2.2c-.408.712-1.213 1.143-1.996 1.06a2.105 2.105 0 0 1-1.544-.945c-.412-.6-.497-1.427-.24-2.114.255-.695.86-1.233 1.553-1.375z" class="dcls-1"/></symbol><symbol preserveAspectRatio="xMidYMid" viewBox="0 0 11.75 11.75" id="close-icon"><path d="M.007 1.64C.547 1.096 1.087.555 1.63.014c1.41 1.417 2.834 2.817 4.243 4.233L10.11.01c.545.543 1.088 1.086 1.63 1.63L7.503 5.876c1.412 1.414 2.825 2.826 4.237 4.238a625.47 625.47 0 0 1-1.63 1.63L5.87 7.502c-1.417 1.41-2.826 2.824-4.24 4.237a621.636 621.636 0 0 1-1.623-1.625C1.42 8.703 2.832 7.29 4.244 5.877L.007 1.64z" class="ecls-1"/></symbol><symbol preserveAspectRatio="xMidYMid" viewBox="0 0 22 20" id="discount-icon"><path d="M21.41 11.948c-2.263 2.42-4.537 4.833-6.806 7.248-.89.974-2.535 1.077-3.544.23-2.835-2.352-5.658-4.72-8.49-7.073-.98-.776-1.607-1.92-1.957-3.102C.403 8.59.43 7.89.36 7.205.233 5.857.12 4.508-.01 3.16-.195 1.556 1.303.062 2.88.088 3.743.08 4.603.068 5.464.058 6.46.045 7.456.037 8.453 0c1.56.043 3.152.564 4.33 1.616 2.802 2.346 5.616 4.676 8.415 7.025.973.794 1.082 2.397.21 3.308zm-.725-2.157c-.177-.32-.49-.53-.763-.762-2.742-2.28-5.476-4.568-8.218-6.85C10.61 1.35 9.182 1.013 7.824 1.1c-1.715.042-3.432.025-5.144.084-.905.142-1.676 1.054-1.526 1.988.16 1.727.315 3.454.463 5.182.19 1.28.838 2.53 1.883 3.315 2.602 2.164 5.2 4.334 7.8 6.5.367.295.716.68 1.21.73.488.078.983-.137 1.3-.504 2.225-2.377 4.46-4.745 6.683-7.122a1.294 1.294 0 0 0 .192-1.483zM5.167 8.1c-.853-.46-1.423-1.426-1.333-2.402.07-1.05.878-1.96 1.874-2.248 1.286-.416 2.837.254 3.336 1.527.373.893.136 1.987-.554 2.66-.842.874-2.273 1.058-3.323.463zm.922-3.62c-.677.186-1.195.882-1.085 1.59.096.798.904 1.393 1.693 1.28.806-.062 1.484-.86 1.34-1.673-.12-.88-1.114-1.467-1.95-1.197z" class="fcls-1"/></symbol><symbol preserveAspectRatio="xMidYMid" viewBox="0 0 20 17" id="menu-icon"><path d="M18.5 10h-17a1.5 1.5 0 0 1 0-3h17a1.5 1.5 0 0 1 0 3zm0-7h-17a1.5 1.5 0 0 1 0-3h17a1.5 1.5 0 0 1 0 3zm-17 11h17a1.5 1.5 0 0 1 0 3h-17a1.5 1.5 0 0 1 0-3z" class="gcls-1"/></symbol><symbol preserveAspectRatio="xMidYMid" viewBox="0 0 48 31" id="newsletter-icon"><path d="M43.123 3.49a1.658 1.658 0 0 0-.41-1.166c-4.226 4.007-8.44 8.03-12.664 12.037 1.803 2.03 3.607 4.056 5.41 6.085-.414.476-.783.99-1.102 1.54-2.195-1.824-4.387-3.65-6.58-5.474-1.45 1.403-2.928 2.78-4.386 4.175-.485.472-1.318.467-1.797-.01-1.456-1.39-2.93-2.764-4.376-4.164-4.93 4.1-9.872 8.188-14.79 12.302.298.188.637.324.994.307H33.23a9.95 9.95 0 0 0 .606 1.877H3.742c-.56.016-1.132-.023-1.65-.246C.877 30.278.014 29.035 0 27.727c-.003-8.15-.003-16.302 0-24.453C.007 1.766 1.16.376 2.63.077c.368-.08.746-.084 1.12-.08 12.674.006 25.347-.002 38.02.006 1.72.02 3.23 1.558 3.226 3.28.003 4.64.002 9.278 0 13.917a10.058 10.058 0 0 0-1.873-.194V3.49zm-41.25.003c.002 8.04-.002 16.08 0 24.12-.012.38.156.728.376 1.027 4.24-4.752 8.462-9.52 12.698-14.278-4.23-4.008-8.442-8.033-12.67-12.04-.27.33-.434.74-.406 1.17zM41.57 1.878H3.423a1.582 1.582 0 0 0-1.018.344l19.264 14.85c.447.376 1.14.4 1.604.04 6.443-4.96 12.878-9.93 19.32-14.89a1.58 1.58 0 0 0-1.02-.344zm2.34 23.01c-.002-.96-.002-1.92 0-2.88 1.37 1.49 2.722 2.992 4.086 4.487a578.528 578.528 0 0 1-4.085 4.495c-.002-.96 0-1.923 0-2.884-1.29.01-2.65.17-3.753.88-.55.352-.99.884-1.168 1.512.144-1.59.616-3.253 1.792-4.413.81-.818 1.983-1.197 3.13-1.198z" class="hcls-1"/></symbol><symbol preserveAspectRatio="xMidYMid" viewBox="0 0 9 8.969" id="remove-icon"><path d="M1.067.04c.052-.055.133-.074.204-.055a.41.41 0 0 1 .192.12L4.5 3.135 7.56.084c.09-.092.255-.148.363-.055l1.025 1.02a.204.204 0 0 1 .065.17c-.005.096-.065.178-.13.243l-3.03 3.02 2.98 2.97c.088.084.183.184.18.314.004.08-.052.14-.106.19l-.964.962a.235.235 0 0 1-.22.063c-.09-.017-.16-.08-.22-.144L4.5 5.842 1.447 8.887c-.072.073-.18.12-.282.095-.067-.013-.112-.07-.158-.114l-.963-.96c-.11-.112-.045-.29.055-.384l3.047-3.04-3.05-3.04c-.094-.093-.16-.26-.064-.373L1.067.04z" class="icls-1"/></symbol><symbol preserveAspectRatio="xMidYMid" viewBox="0 0 15 15" id="search-icon"><path d="M2.95 1.226A6.96 6.96 0 0 1 6.872 0a6.955 6.955 0 0 1 3.887 1.196 6.858 6.858 0 0 1 2.814 4.024c.522 2.022.053 4.282-1.256 5.915 1.19 1.18 1.217 1.213 2.405 2.396a.856.856 0 0 1 .218.935c-.178.544-.975.71-1.37.3-1.202-1.197-1.246-1.243-2.444-2.442-1.128.91-2.57 1.4-4.015 1.462a6.983 6.983 0 0 1-4.08-1.164A6.95 6.95 0 0 1 .59 9.75a6.893 6.893 0 0 1 2.36-8.524zm3.555.475c-1.902.102-3.658 1.374-4.41 3.11-.456 1.015-.54 2.18-.303 3.262.338 1.48 1.37 2.775 2.724 3.463.933.49 2.02.648 3.06.516 1.655-.206 3.17-1.277 3.927-2.758.5-.918.67-1.995.55-3.03-.156-1.45-.992-2.8-2.185-3.633a5.155 5.155 0 0 0-3.363-.93z" class="jcls-1"/></symbol><symbol preserveAspectRatio="xMidYMid" viewBox="0 0 32 17" id="shipping-icon"><path d="M31.14 14.983c-.468.09-.95.032-1.423.05-.264 1.067-1.185 1.886-2.205 1.954-1.15.125-2.303-.74-2.595-1.955-4.29-.002-8.582-.002-12.87 0-.266 1.063-1.177 1.882-2.193 1.955-1.158.13-2.315-.737-2.61-1.958-.6-.005-1.2.014-1.8-.006-.59-.004-1.13-.59-1.07-1.24.022-1.035-.036-2.074.03-3.106.277-.214.68-.13.995-.068l.062.083c.05.902-.01 1.81.025 2.712.003.218.145.43.356.44.47.042.942.01 1.413.017.196-.79.728-1.478 1.438-1.777.874-.397 1.953-.185 2.634.532.346.336.553.8.692 1.275h9.422c.247.025.567-.113.547-.434.025-3.3-.027-6.598.03-9.896-.008-.652.015-1.306-.008-1.958.004-.22-.15-.455-.372-.432-5.61-.06-11.22-.02-16.83-.03-.31-.014-.717.092-.922-.24-.295-.38.08-.964.507-.9C10.283.005 16.17 0 22.06.006c.48-.025.965.35 1.04.875.05.4.015.804.022 1.206 1.082.003 2.162-.003 3.242.002.66.01 1.247.472 1.6 1.054 1.218 2.006 2.483 3.98 3.726 5.97.114.21.318.394.305.66.004 1.34.003 2.68 0 4.02.028.553-.353 1.084-.854 1.19zm-20.146-.648c-.014-.908-.948-1.546-1.724-1.277-.572.147-1.005.754-.982 1.392-.024.783.65 1.468 1.367 1.425.746.034 1.434-.725 1.34-1.54zM27.45 15.87c.736-.036 1.336-.83 1.214-1.62-.07-.886-1-1.458-1.756-1.183-.595.17-1.017.838-.942 1.502.033.792.77 1.403 1.484 1.3zm3.444-5.65c.034-.28-.168-.484-.29-.704-1.305-2.09-2.59-4.192-3.88-6.29-1.015 0-2.03-.005-3.047 0-.245-.006-.562.128-.545.447a599.09 599.09 0 0 0-.028 9.76c-.02.275.237.433.46.45.45.025.903 0 1.356.01.25-1.2 1.35-2.076 2.48-2.004 1.054.022 2.02.863 2.272 1.973.318-.006.637.022.954-.016.228-.092.277-.38.268-.612V10.22zM12.827 2.865c.18.212.157.58-.04.77-.212.217-.526.165-.792.177C8.163 3.797 4.33 3.83.5 3.795c-.554.012-.7-.92-.173-1.094.154-.06.32-.057.48-.06 3.803.004 7.606 0 11.41.002.214 0 .467.02.61.222zM2.75 5.418c3.94.006 7.877-.003 11.815.004.187-.008.35.133.44.3.174.31-.034.753-.356.81-.166.034-.334.026-.502.03-3.84-.012-7.68.01-11.52-.012-.478.02-.718-.733-.312-1.024.122-.11.285-.11.434-.108zm1.343 2.75c2.122.007 4.244-.003 6.366.004.365-.027.662.45.474.802-.087.246-.35.342-.574.334-2.156-.003-4.313.007-6.47-.004-.51.03-.74-.79-.28-1.054.143-.103.32-.075.483-.082z" class="kcls-1"/></symbol></svg>