<svg id="svg-sprite" class="svg-sprites">
    <defs>
        <linearGradient id="color1_h" x1="0%" x2="100%" y1="0%" y2="0%"><stop offset="0%" style="stop-color:{{color1_bg}};stop-opacity:1" /><stop offset="100%" style="stop-color:{{color1_bg_hover}};stop-opacity:1" /></linearGradient>
        <linearGradient id="color1_v" x1="0%" x2="0%" y1="0%" y2="100%"><stop offset="0%" style="stop-color:{{color1_bg}};stop-opacity:1" /><stop offset="100%" style="stop-color:{{color1_bg_hover}};stop-opacity:1" /></linearGradient>
        <linearGradient id="color2_h" x1="0%" x2="100%" y1="0%" y2="0%"><stop offset="0%" style="stop-color:{{color2_bg}};stop-opacity:1" /><stop offset="100%" style="stop-color:{{color2_bg_hover}};stop-opacity:1" /></linearGradient>
        <linearGradient id="color2_v" x1="0%" x2="0%" y1="0%" y2="100%"><stop offset="0%" style="stop-color:{{color2_bg}};stop-opacity:1" /><stop offset="100%" style="stop-color:{{color2_bg_hover}};stop-opacity:1" /></linearGradient>
        <linearGradient id="color3_h" x1="0%" x2="100%" y1="0%" y2="0%"><stop offset="0%" style="stop-color:{{color3_bg}};stop-opacity:1" /><stop offset="100%" style="stop-color:{{color3_bg_hover}};stop-opacity:1" /></linearGradient>
        <linearGradient id="color3_v" x1="0%" x2="0%" y1="0%" y2="100%"><stop offset="0%" style="stop-color:{{color3_bg}};stop-opacity:1" /><stop offset="100%" style="stop-color:{{color3_bg_hover}};stop-opacity:1" /></linearGradient>
        <linearGradient id="button_h" x1="0%" x2="100%" y1="0%" y2="0%"><stop offset="0%" style="stop-color:{{button_bg}};stop-opacity:1" /><stop offset="100%" style="stop-color:{{button_bg_hover}}; ?>;stop-opacity:1" /></linearGradient>
        <linearGradient id="button_v" x1="0%" x2="0%" y1="0%" y2="100%"><stop offset="0%" style="stop-color:{{button_bg}};stop-opacity:1" /><stop offset="100%" style="stop-color:{{button_bg_hover}};stop-opacity:1" /></linearGradient>
    </defs>
    <symbol id="img-busca" viewBox="0 0 100 100"><path d="M99.309,91.326l-7.507,7.507c-0.921,0.921-2.415,0.921-3.337,0 L67.951,78.319c-7.044,5.057-15.68,8.035-25.012,8.035C19.225,86.354,0,67.13,0,43.416C0,19.701,19.225,0.477,42.939,0.477 s42.939,19.224,42.939,42.939c0,8.841-2.674,17.058-7.255,23.888l20.686,20.686C100.23,88.911,100.23,90.404,99.309,91.326z M42.939,11.683c-17.525,0-31.732,14.207-31.732,31.732c0,17.525,14.207,31.732,31.732,31.732c17.525,0,31.732-14.207,31.732-31.732 C74.671,25.89,60.464,11.683,42.939,11.683z"/></symbol>
    <symbol id="img-cart" viewBox="0 0 100 100"><path d="M99.883,15.038c-2.06,13.129-4.11,26.257-6.172,39.382 c-0.695,4.873-4.982,8.914-9.735,9.162c-20.96,0.008-41.923-0.005-62.883,0.005c-3.934,0.037-8.275-3.469-7.281-9.094 c1.936-12.412,3.883-24.819,5.827-37.23c0.162-1.148-0.774-2.368-1.926-2.338c-5.035-0.11-10.069-0.11-15.104-0.162 c-1.188,0.021-2.345-0.878-2.53-2.115c-0.198-1.435,0.057-2.881-0.013-4.321c-0.164-3.13,3.597-2.74,2.729-2.711 C32.7,5.613,62.606,5.618,92.513,5.613C99.019,5.575,100.465,11.573,99.883,15.038z M24.14,74.564c5.481,0,9.925,4.443,9.925,9.925 s-4.443,9.925-9.925,9.925s-9.925-4.443-9.925-9.925S18.659,74.564,24.14,74.564z M73.765,74.564c5.481,0,9.925,4.443,9.925,9.925 s-4.443,9.925-9.925,9.925s-9.925-4.443-9.925-9.925S68.283,74.564,73.765,74.564z"/></symbol>
    <symbol id="img-menu" viewBox="0 0 100 100"><path fill="#fff" d="M92.5,57.5h-85C3.357,57.5,0,54.143,0,50 c0-4.143,3.357-7.5,7.5-7.5h85c4.141,0,7.5,3.357,7.5,7.5C100,54.143,96.641,57.5,92.5,57.5z M92.5,27.5h-85 C3.357,27.5,0,24.143,0,20s3.357-7.5,7.5-7.5h85c4.141,0,7.5,3.357,7.5,7.5S96.641,27.5,92.5,27.5z M7.5,72.5h85 c4.141,0,7.5,3.359,7.5,7.5s-3.359,7.5-7.5,7.5h-85C3.357,87.5,0,84.141,0,80S3.357,72.5,7.5,72.5z"/></symbol>
    <symbol id="img-list" viewBox="0 0 100 100"><path d="M89.474,60.526H10.526C4.713,60.526,0,55.818,0,50 c0-5.813,4.713-10.526,10.526-10.526h78.947C95.287,39.474,100,44.187,100,50C100,55.818,95.287,60.526,89.474,60.526z M89.474,23.689H10.526C4.713,23.689,0,18.971,0,13.158C0,7.345,4.713,2.631,10.526,2.631h78.947C95.287,2.631,100,7.345,100,13.158 C100,18.971,95.287,23.689,89.474,23.689z M10.526,76.321h78.947c5.813,0,10.526,4.713,10.526,10.526 c0,5.812-4.713,10.521-10.526,10.521H10.526C4.713,97.368,0,92.66,0,86.848C0,81.034,4.713,76.321,10.526,76.321z"/></symbol>
    <symbol id="img-grid" viewBox="0 0 100 100"><path d="M88.889,61.111c-6.136,0-11.111-4.97-11.111-11.111 c0-6.136,4.976-11.111,11.111-11.111C95.025,38.889,100,43.864,100,50C100,56.142,95.025,61.111,88.889,61.111z M88.889,22.228 c-6.136,0-11.111-4.98-11.111-11.116C77.777,4.975,82.753,0,88.889,0C95.025,0,100,4.975,100,11.111 C100,17.247,95.025,22.228,88.889,22.228z M50,100c-6.136,0-11.111-4.97-11.111-11.105c0-6.137,4.975-11.111,11.111-11.111 c6.136,0,11.111,4.975,11.111,11.111C61.111,95.03,56.136,100,50,100z M50,61.111c-6.136,0-11.111-4.97-11.111-11.111 c0-6.136,4.975-11.111,11.111-11.111c6.136,0,11.111,4.975,11.111,11.111C61.111,56.142,56.136,61.111,50,61.111z M50,22.228 c-6.136,0-11.111-4.98-11.111-11.116C38.889,4.975,43.864,0,50,0c6.136,0,11.111,4.975,11.111,11.111 C61.111,17.247,56.136,22.228,50,22.228z M11.111,100C4.975,100,0,95.03,0,88.895c0-6.137,4.975-11.111,11.111-11.111 c6.136,0,11.111,4.975,11.111,11.111C22.222,95.03,17.247,100,11.111,100z M11.111,61.111C4.975,61.111,0,56.142,0,50 c0-6.136,4.975-11.111,11.111-11.111c6.136,0,11.111,4.975,11.111,11.111C22.222,56.142,17.247,61.111,11.111,61.111z M11.111,22.228C4.975,22.228,0,17.247,0,11.111C0,4.975,4.975,0,11.111,0c6.136,0,11.111,4.975,11.111,11.111 C22.222,17.247,17.247,22.228,11.111,22.228z M88.889,77.783c6.137,0,11.111,4.975,11.111,11.111C100,95.03,95.025,100,88.889,100 c-6.136,0-11.111-4.97-11.111-11.105C77.777,82.758,82.753,77.783,88.889,77.783z"/></symbol>
    <symbol id="img-truck" width="100px" height="50.65px" viewBox="0 0 100 50.65"><path d="M96.518,44.744h-0.079c-0.016,0.006-0.051,0.035-0.062,0.035l-3.525,0.01 c-0.812,3.381-3.925,5.861-7.473,5.861c-3.55,0-6.663-2.48-7.474-5.861h-6.414h-2.061H37.64c-0.812,3.381-3.925,5.861-7.474,5.861 c-3.549,0-6.661-2.48-7.474-5.861l-0.023-0.02h-5.492c-1.936,0-3.511-1.572-3.511-3.504v-0.036l-0.001-0.001l0.001-0.157v-4.096 h0.019l0.022-4.8c0-0.384,0.312-0.694,0.696-0.694h2.061c0.385,0,0.696,0.311,0.696,0.694v4.8h0.018v3.083 c0.011,0.003,0.029,0.006,0.029,0.01c0,0.657,0.527,1.186,1.181,1.197h0.041c0.02-0.005,0.039-0.012,0.06-0.014v0.014h4.225 c0.826-3.419,3.833-5.855,7.407-5.881c3.593,0.025,6.625,2.497,7.421,5.958h29.931v-0.011c0.018,0.002,0.035,0.006,0.053,0.011 h0.053c0.623-0.014,1.116-0.5,1.16-1.117l0.065-33.363v-2.25c-0.005-0.004-0.023-0.006-0.023-0.009c0-0.594-0.438-1.065-1.007-1.161 h-5.489c-0.029,0-0.051-0.016-0.079-0.02H13.573c-0.943,0-1.709-0.764-1.709-1.706c0-0.942,0.766-1.706,1.709-1.706h48.652 C62.244,0.006,62.263,0,62.283,0l0.038,0.011h6.164c0.02,0,0.033,0.01,0.051,0.01h0.595c1.727,0,3.129,1.401,3.129,3.124v3.025 h7.874c0.002,0,0.01,0.004,0.012,0.004h1.851c1.726,0,3.669,0.627,5.378,3.124l2.08,3.284L99.84,28.353 c0.093,0.121,0.143,0.269,0.143,0.421L100,41.268C100,43.186,98.438,44.744,96.518,44.744z M34.416,42.933 c-0.018-2.363-1.878-4.21-4.25-4.21c-2.37,0-4.229,1.844-4.25,4.205c0.002,0.028,0.005,0.059,0.005,0.096 c0,0.02-0.002,0.051-0.005,0.077c0.018,2.364,1.878,4.211,4.25,4.211c2.371,0,4.231-1.846,4.25-4.207 c-0.003-0.027-0.005-0.058-0.005-0.093C34.411,42.991,34.414,42.961,34.416,42.933z M81.128,43.101 c0.019,2.364,1.88,4.211,4.251,4.211c2.369,0,4.23-1.846,4.249-4.207c-0.004-0.027-0.004-0.058-0.004-0.096 c0-0.019,0.002-0.048,0.004-0.076c-0.017-2.363-1.877-4.21-4.249-4.21c-2.371,0-4.23,1.844-4.251,4.205 c0.003,0.028,0.005,0.059,0.005,0.096C81.133,43.043,81.131,43.074,81.128,43.101z M96.53,29.725L83.519,9.614h-9.955v0.101 c-0.029-0.002-0.053-0.017-0.081-0.017c-0.663,0-1.202,0.538-1.202,1.2c0,0.004-0.019,0.006-0.027,0.01l-0.063,29.159 c0.002,0.002,0.01,0.002,0.01,0.005c0,0.661,0.539,1.199,1.201,1.199c0.029,0,0.054-0.015,0.082-0.017v0.09H77.9 c0.797-3.46,3.83-5.933,7.433-5.959c3.563,0.027,6.572,2.464,7.396,5.886h2.953c0.463-0.167,0.802-0.599,0.802-1.12 c0-0.005,0.02-0.008,0.033-0.012v-3.124h0.013V29.725z M40.498,9.601c0,0.943-0.766,1.708-1.711,1.707H1.709 C0.766,11.308,0,10.544,0,9.601c0-0.942,0.766-1.706,1.709-1.706h37.079C39.734,7.895,40.498,8.659,40.498,9.601z M8.312,16.099 h37.079c0.945,0,1.71,0.764,1.71,1.707c0,0.942-0.765,1.706-1.71,1.706H8.312c-0.944,0-1.71-0.764-1.71-1.706 C6.603,16.863,7.368,16.099,8.312,16.099z M12.226,24.303h20.426c0.946,0,1.71,0.764,1.71,1.706c0,0.942-0.764,1.708-1.708,1.706 H12.226c-0.944,0-1.71-0.764-1.71-1.706C10.516,25.067,11.282,24.303,12.226,24.303z"/></symbol>
    <symbol id="img-play" viewBox="0 0 100 100"><path d="M50.002,3.162c-25.826,0-46.835,21.009-46.835,46.841c0,25.826,21.009,46.835,46.835,46.835 c25.826,0,46.83-21.009,46.83-46.835C96.832,24.171,75.828,3.162,50.002,3.162z M50.002,86.871 c-20.36,0-36.875-16.508-36.875-36.868c0-20.369,16.515-36.874,36.875-36.874c20.361,0,36.873,16.505,36.873,36.874 C86.875,70.363,70.363,86.871,50.002,86.871z"/><path d="M40.563,34.64c-0.829-0.833-2.949-0.833-2.949,0v33.845c0,0.834,2.125,0.834,2.957,0l27.781-15.417 c0.832-0.829,0.846-2.178,0.016-3.01L40.563,34.64z"/></symbol>
    <symbol id="img-cupon" viewBox="0 0 100 100"><path d="M91.587,76.389c-14.463,17.485-27.424-1.811-28.438-3.482 c1.571-1.567,3.143-3.135,4.728-4.69c4.472,8.536,9.679,9.151,12.462,8.463c3.479-0.818,9.478-5.07,12.231-17.947 c3.006-14.601-1.187-26.26-4.991-31.962c-0.049-3.043-0.005-6.086-0.022-9.128c7.704,5.702,12.216,17.328,12.438,30.442 C100.129,57.49,97.922,68.657,91.587,76.389z M31.279,89.924C29.105,88.104,5.395,64.951,1.911,61.469 c-1.861-1.807-2.454-4.758-1.374-7.117c0.502-1.228,1.494-2.146,2.42-3.06C17.627,36.719,44.774,9.833,44.774,9.833 S64.869,9.835,74.916,9.84c3.227,0.04,6.091,2.85,6.193,6.046c0.011,10.042,0.004,30.122,0.004,30.122L38.261,88.564 C38.261,88.564,33.776,91.991,31.279,89.924z M62.077,34.978c2.354,0.084,4.679-1.244,5.794-3.3c1.064-1.87,1.071-4.274,0.018-6.15 c-1.36-2.548-4.584-3.927-7.376-3.086c-3.031,0.774-5.141,3.974-4.64,7.045C56.248,32.494,59.024,34.958,62.077,34.978z"/></symbol>
    <symbol id="img-os-new" width="68.396px" height="100px" viewBox="0 0 68.396 100"><path d="M68.292,99.155c-0.139,0.333-0.406,0.6-0.74,0.738 c-0.335,0.138-0.711,0.138-1.049,0c-0.163-0.071-0.315-0.17-0.445-0.295l-4.502-4.502l-4.504,4.502c-0.535,0.535-1.4,0.535-1.935,0 l-4.504-4.502l-4.506,4.502c-0.533,0.535-1.398,0.535-1.932,0l-4.507-4.502l-4.504,4.502c-0.534,0.535-1.4,0.535-1.933,0 l-4.506-4.502l-4.505,4.502c-0.533,0.535-1.398,0.535-1.933,0l-4.505-4.502l-4.504,4.502c-0.535,0.535-1.4,0.535-1.933,0 l-4.505-4.502l-4.503,4.502c-0.128,0.125-0.28,0.224-0.445,0.295c-0.337,0.138-0.712,0.138-1.049,0 c-0.334-0.139-0.601-0.404-0.739-0.738C0.038,98.988,0,98.809,0,98.633V13.866c0,0,0,0,0-0.003c0-0.002,0-0.002,0-0.002 c-0.009-2.262,1.835-4.102,4.096-4.102c0.01,0,0.016,0.006,0.025,0.006h14.067v2.734H4.096c-0.004,0-0.007-0.003-0.013-0.003 c-0.749,0.009-1.354,0.616-1.354,1.365c0,0,0,0,0,0.002c0,0.003,0,0.003,0,0.003v81.466l3.137-3.135 c0.267-0.268,0.618-0.399,0.968-0.399s0.701,0.135,0.968,0.399l4.504,4.502l4.504-4.502c0.267-0.268,0.618-0.399,0.968-0.399 c0.351,0,0.701,0.135,0.968,0.399l4.504,4.502l4.505-4.502c0.267-0.268,0.618-0.399,0.968-0.399c0.35,0,0.701,0.135,0.968,0.399 l4.504,4.502l4.504-4.502c0.269-0.268,0.62-0.399,0.968-0.399c0.352,0,0.699,0.135,0.969,0.399l4.504,4.502l4.505-4.502 c0.268-0.268,0.618-0.399,0.969-0.399c0.35,0,0.699,0.135,0.968,0.399l4.504,4.502l4.504-4.502c0.269-0.268,0.62-0.399,0.968-0.399 c0.352,0,0.699,0.135,0.968,0.399l3.139,3.135V13.866c-0.003-0.754-0.618-1.367-1.372-1.367H50.208V9.765h14.083 c2.263,0,4.105,1.84,4.105,4.1v84.768C68.396,98.809,68.357,98.988,68.292,99.155z M47.838,63.063c-1.507,0-2.729-1.834-2.729-4.094 s1.223-4.092,2.729-4.092c1.506,0,2.729,1.832,2.729,4.092S49.344,63.063,47.838,63.063z M27.37,68.522 c0,3.764,3.059,6.823,6.822,6.823c3.764,0,6.824-3.06,6.824-6.823c0-0.755,0.61-1.366,1.364-1.366c0.753,0,1.364,0.611,1.358,1.366 c0,5.266-4.283,9.55-9.549,9.55s-9.551-4.284-9.551-9.55c0-0.755,0.611-1.366,1.366-1.366C26.759,67.156,27.37,67.768,27.37,68.522z M23.708,9.335l2.058-2.058l6.976,6.976L46.995,0l2.059,2.058L32.742,19.222L23.708,9.335z M20.549,63.063 c-1.506,0-2.729-1.834-2.729-4.094s1.222-4.092,2.729-4.092c1.507,0,2.729,1.832,2.729,4.092S22.056,63.063,20.549,63.063z"/></symbol>
    <symbol id="img-os-ok" width="100px" height="94.336px" viewBox="0 0 100 94.336"><path d="M98.148,94.336H1.852C0.828,94.336,0,93.507,0,92.484V29.903 c0-0.008,0-0.013,0-0.016v-0.021c0-0.103,0.039-0.186,0.058-0.284c0.019-0.138,0.023-0.276,0.077-0.412L11.462,1.157 c0.002-0.004,0.005-0.007,0.005-0.01c0.249-0.603,0.807-1.011,1.472-1.101c0.073-0.007,0.141-0.043,0.218-0.043 C13.166,0.003,13.171,0,13.179,0h73.638c0.008,0,0.012,0.003,0.019,0.003c0.104,0,0.203,0.043,0.31,0.06 c0.619,0.115,1.146,0.508,1.385,1.082c0,0.003,0.004,0.005,0.004,0.01l11.329,28.013c0.06,0.136,0.06,0.28,0.081,0.422 c0.014,0.09,0.052,0.175,0.052,0.27v0.022c0,0.003,0,0.007,0.004,0.015v62.587C100,93.507,99.171,94.336,98.148,94.336z M14.429,3.702L4.599,28.011h35.261l2.43-24.309H14.429z M48.146,3.7h-2.137l-2.431,24.309h4.568V3.7z M53.985,3.702h-2.138v24.309 h4.568L53.985,3.702z M56.644,31.713H43.354v4.383l6.057-2.021c0.079-0.027,0.158-0.015,0.239-0.028 c0.118-0.026,0.226-0.04,0.343-0.04c0.127,0,0.247,0.012,0.371,0.041c0.071,0.017,0.148,0,0.218,0.027l6.061,2.021V31.713z M85.567,3.7H57.706l2.429,24.309h35.263L85.567,3.7z M96.296,31.713H60.348v6.952c0,0.102-0.039,0.189-0.059,0.283 c-0.016,0.101-0.004,0.203-0.036,0.305c-0.01,0.017-0.025,0.025-0.033,0.042c-0.119,0.327-0.332,0.593-0.598,0.802 c-0.054,0.042-0.104,0.073-0.166,0.113c-0.285,0.177-0.6,0.308-0.961,0.308c-0.196,0-0.394-0.029-0.586-0.095l-7.911-2.636 l-7.909,2.636c-0.195,0.066-0.39,0.095-0.586,0.095c-0.361,0-0.675-0.132-0.963-0.308c-0.06-0.04-0.112-0.07-0.166-0.113 c-0.266-0.209-0.476-0.476-0.596-0.802c-0.008-0.018-0.027-0.025-0.033-0.042c-0.035-0.103-0.023-0.205-0.039-0.305 c-0.016-0.094-0.056-0.181-0.056-0.283v-6.952H3.702v58.912h92.59h0.004V31.713z M68.515,61.1c-2.045,0-3.704-2.488-3.704-5.556 s1.659-5.554,3.704-5.554s3.704,2.486,3.704,5.554S70.56,61.1,68.515,61.1z M49.992,81.47c-7.145,0-12.961-5.814-12.961-12.959 c0-1.026,0.828-1.855,1.852-1.855c1.026,0,1.854,0.829,1.854,1.855c0,5.105,4.151,9.259,9.259,9.259c5.108,0,9.26-4.155,9.26-9.259 c0-1.026,0.821-1.855,1.846-1.855s1.854,0.829,1.854,1.855C62.955,75.655,57.14,81.47,49.992,81.47z M31.478,61.1 c-2.044,0-3.704-2.488-3.704-5.556s1.659-5.554,3.704-5.554c2.047,0,3.704,2.486,3.704,5.554S33.524,61.1,31.478,61.1z"/></symbol>
    <symbol id="img-os-sent" width="69.697px" height="100px" viewBox="0 0 69.697 100"><path d="M34.849,100C23.879,100,0,52.014,0,34.849C0,15.634,15.635,0,34.849,0 s34.849,15.634,34.849,34.849C69.697,52.014,45.819,100,34.849,100z M34.849,3.029c-17.546,0-31.818,14.274-31.818,31.82 c0,18.415,24.042,62.121,31.818,62.121c7.774,0,31.818-43.706,31.818-62.121C66.667,17.303,52.393,3.029,34.849,3.029z M50,37.875 c-1.673,0-3.03-2.033-3.03-4.544c0-2.509,1.357-4.545,3.03-4.545s3.03,2.036,3.03,4.545C53.03,35.843,51.673,37.875,50,37.875z M34.844,54.546c-5.847,0-10.606-4.759-10.606-10.606c0-0.84,0.677-1.517,1.517-1.517c0.838,0,1.515,0.679,1.515,1.517 c0,4.178,3.398,7.576,7.578,7.576s7.578-3.398,7.578-7.576c0-0.84,0.675-1.517,1.515-1.517s1.516,0.679,1.516,1.517 C45.455,49.787,40.691,54.546,34.844,54.546z M19.697,37.875c-1.673,0-3.03-2.033-3.03-4.544c0-2.509,1.357-4.545,3.03-4.545 c1.673,0,3.03,2.036,3.03,4.545C22.728,35.843,21.37,37.875,19.697,37.875z"/></symbol>
    <symbol id="img-os-hold" width="63.504px" height="100px" viewBox="0 0 63.504 100"><path d="M63.407,99.217c-0.129,0.309-0.377,0.557-0.688,0.685s-0.659,0.128-0.974,0 c-0.151-0.066-0.293-0.157-0.413-0.273l-4.181-4.181l-4.182,4.181c-0.496,0.496-1.3,0.496-1.796,0l-4.183-4.181l-4.183,4.181 c-0.495,0.496-1.299,0.496-1.794,0l-4.185-4.181l-4.182,4.181c-0.496,0.496-1.3,0.496-1.795,0l-4.183-4.181l-4.184,4.181 c-0.495,0.496-1.298,0.496-1.794,0l-4.183-4.181l-4.182,4.181c-0.496,0.496-1.3,0.496-1.795,0L6.35,95.447l-4.181,4.181 c-0.119,0.116-0.26,0.207-0.413,0.273c-0.313,0.128-0.661,0.128-0.974,0c-0.31-0.128-0.558-0.375-0.686-0.685 C0.036,99.061,0,98.895,0,98.73V20.027c0,0,0,0,0-0.002c0-0.003,0-0.003,0-0.003c-0.008-2.1,1.704-3.809,3.803-3.809 c0.009,0,0.015,0.005,0.023,0.005h13.061v2.539H3.803c-0.004,0-0.007-0.002-0.012-0.002c-0.695,0.008-1.259,0.571-1.259,1.267 c0,0,0,0,0,0.003c0,0.002,0,0.002,0,0.002v75.639l2.914-2.911c0.248-0.248,0.574-0.37,0.898-0.37s0.65,0.125,0.899,0.37l4.182,4.181 l4.182-4.181c0.248-0.248,0.574-0.37,0.898-0.37c0.326,0,0.651,0.125,0.899,0.37l4.183,4.181l4.182-4.181 c0.248-0.248,0.574-0.37,0.898-0.37c0.325,0,0.649,0.125,0.897,0.37l4.184,4.181l4.182-4.181c0.249-0.248,0.575-0.37,0.898-0.37 c0.326,0,0.649,0.125,0.898,0.37l4.182,4.181l4.184-4.181c0.248-0.248,0.574-0.37,0.898-0.37c0.325,0,0.649,0.125,0.899,0.37 l4.182,4.181l4.182-4.181c0.25-0.248,0.575-0.37,0.899-0.37c0.325,0,0.65,0.125,0.898,0.37l2.914,2.911V20.027 c-0.003-0.701-0.574-1.27-1.273-1.27H46.616v-2.539h13.077c2.101,0,3.811,1.708,3.811,3.807V98.73 C63.504,98.895,63.469,99.061,63.407,99.217z M43.232,7.988l5.41-6.29h-5.205V0h7.825v1.482l-5.391,6.289h5.483v1.699h-8.123V7.988z M49.996,61.06c0.702,0,1.267,0.568,1.267,1.269c0,0.701-0.564,1.269-1.267,1.269h-6.757c-0.702,0-1.268-0.567-1.268-1.269 c0-0.7,0.565-1.269,1.268-1.269H49.996z M43.155,75.842c0,0.7-0.565,1.268-1.268,1.268h-20.27c-0.702,0-1.268-0.567-1.268-1.268 c0-0.701,0.566-1.269,1.268-1.269h20.27C42.59,74.573,43.155,75.141,43.155,75.842z M25.324,21.471l9.437-11.286H25.68V7.137h13.655 v2.659l-9.407,11.287h9.568v3.048H25.324V21.471z M20.267,63.597H13.51c-0.702,0-1.268-0.567-1.268-1.269 c0-0.7,0.566-1.269,1.268-1.269h6.757c0.702,0,1.267,0.568,1.267,1.269C21.534,63.029,20.969,63.597,20.267,63.597z"/></symbol>
    <symbol id="img-os-cancel" width="75.792px" height="100px" viewBox="0 0 75.792 100"><path d="M75.677,99.064c-0.154,0.368-0.45,0.665-0.82,0.817 c-0.372,0.152-0.788,0.152-1.163,0c-0.181-0.079-0.35-0.188-0.492-0.326l-4.99-4.989l-4.991,4.989c-0.592,0.593-1.551,0.593-2.144,0 l-4.991-4.989l-4.992,4.989c-0.591,0.593-1.55,0.593-2.141,0l-4.994-4.989l-4.991,4.989c-0.592,0.593-1.552,0.593-2.142,0 l-4.993-4.989l-4.993,4.989c-0.59,0.593-1.55,0.593-2.142,0l-4.993-4.989l-4.991,4.989c-0.592,0.593-1.551,0.593-2.142,0 l-4.993-4.989l-4.989,4.989c-0.142,0.139-0.311,0.247-0.493,0.326c-0.373,0.152-0.789,0.152-1.162,0 c-0.37-0.152-0.667-0.447-0.819-0.817C0.042,98.879,0,98.68,0,98.484V4.552c0,0,0,0,0-0.003c0-0.003,0-0.003,0-0.003 C-0.01,2.039,2.033,0,4.539,0C4.55,0,4.556,0.006,4.567,0.006h66.676c2.507,0,4.549,2.039,4.549,4.544v93.934 C75.792,98.68,75.75,98.879,75.677,99.064z M72.763,4.552c-0.003-0.836-0.685-1.515-1.52-1.515H4.539 c-0.005,0-0.008-0.003-0.014-0.003c-0.83,0.009-1.502,0.682-1.502,1.512c0,0,0,0,0,0.003c0,0.003,0,0.003,0,0.003v90.276L6.5,91.354 c0.296-0.296,0.685-0.442,1.072-0.442c0.388,0,0.777,0.149,1.073,0.442l4.991,4.989l4.991-4.989 c0.296-0.296,0.685-0.442,1.073-0.442c0.389,0,0.776,0.149,1.072,0.442l4.993,4.989l4.991-4.989 c0.296-0.296,0.686-0.442,1.073-0.442s0.775,0.149,1.071,0.442l4.993,4.989l4.991-4.989c0.298-0.296,0.687-0.442,1.072-0.442 c0.389,0,0.775,0.149,1.072,0.442l4.991,4.989l4.993-4.989c0.296-0.296,0.686-0.442,1.072-0.442c0.388,0,0.775,0.149,1.073,0.442 l4.991,4.989l4.991-4.989c0.297-0.296,0.687-0.442,1.072-0.442c0.389,0,0.776,0.149,1.072,0.442l3.478,3.475V4.552z M35.294,58.056 h5.187v5.846h-5.187V58.056z M35.294,36.148h5.187v17.417h-5.187V36.148z"/></symbol>
    <symbol id="img-bill" width="85.086px" height="100px" viewBox="0 0 85.086 100"><path d="M73.042,33.563h-22.99V3.295C50.052,1.474,48.58,0,46.77,0H3.285C1.473,0,0.003,1.474,0.003,3.295V87.89 C0.003,87.897,0,87.905,0,87.91C0,94.576,5.403,100,12.043,100h43.485c6.637,0,12.039-5.424,12.039-12.09V70.077h14.237 c1.812,0,3.282-1.477,3.282-3.296V45.65C85.086,38.984,79.684,33.563,73.042,33.563z M12.043,93.41 c-3.016,0-5.471-2.459-5.476-5.488c0-0.005,0-0.007,0-0.012V6.59h36.919v81.32c0,1.98,0.488,3.848,1.331,5.5H12.043z M61.006,45.606 c0,0.017-0.004,0.031-0.004,0.044v42.26c0,3.032-2.458,5.5-5.475,5.5c-3.022,0-5.476-2.468-5.476-5.5V40.154h12.281 C61.496,41.793,61.011,43.642,61.006,45.606z M78.522,63.486H67.567V45.672c0-0.006,0-0.013,0-0.021 c0-3.029,2.458-5.497,5.476-5.497c3.021,0,5.479,2.467,5.479,5.497V63.486z M32.936,15.978H17.115c-1.812,0-3.282,1.474-3.282,3.295 c0,1.82,1.47,3.295,3.282,3.295h15.821c1.812,0,3.283-1.475,3.283-3.295C36.219,17.452,34.748,15.978,32.936,15.978z M32.936,28.26 H17.115c-1.812,0-3.282,1.476-3.282,3.295s1.47,3.295,3.282,3.295h15.821c1.812,0,3.283-1.476,3.283-3.295 S34.748,28.26,32.936,28.26z M32.936,40.538H17.115c-1.812,0-3.282,1.477-3.282,3.295c0,1.821,1.47,3.295,3.282,3.295h15.821 c1.812,0,3.283-1.474,3.283-3.295C36.219,42.015,34.748,40.538,32.936,40.538z M32.936,52.819H17.115 c-1.812,0-3.282,1.476-3.282,3.295s1.47,3.296,3.282,3.296h15.821c1.812,0,3.283-1.477,3.283-3.296S34.748,52.819,32.936,52.819z M32.936,65.104H17.115c-1.812,0-3.282,1.476-3.282,3.295s1.47,3.296,3.282,3.296h15.821c1.812,0,3.283-1.477,3.283-3.296 S34.748,65.104,32.936,65.104z M32.936,77.383H17.115c-1.812,0-3.282,1.477-3.282,3.296s1.47,3.295,3.282,3.295h15.821 c1.812,0,3.283-1.476,3.283-3.295S34.748,77.383,32.936,77.383z"/></symbol>
    <symbol id="img-track" width="100px" height="100px" viewBox="0 0 100 100"><path d="M40.995,33.707c1.445-0.761,2.074-2.708,1.328-4.165 c-0.661-1.479-2.548-2.232-4.044-1.599c-10.967,5.597-15.183,18.023-12.546,28.24c2.991,11.801,13.603,18.597,23.692,18.765 c4.933,0.115,9.889-1.286,14.028-3.974c8.485-5.462,13.874-16.552,10.436-28.033c-0.502-1.609-2.418-2.554-4.003-1.992 c-1.628,0.482-2.61,2.385-2.066,3.993c0.949,3.394,0.929,7.055-0.104,10.43c-2.668,8.916-11.469,14.157-20.099,13.043 c-7.122-0.809-13.446-6.151-15.46-13.026C29.118,45.567,34.739,37.15,40.995,33.707z M86.083,15.863 c-0.343-1.057-1.302-1.711-2.05-2.466C74.849,4.747,62.266-0.181,49.649,0.005c-0.164,0.031-0.489,0.089-0.653,0.117 c-1.368,0.394-2.333,1.778-2.264,3.195c-0.002,15.498,0,30.998,0,46.497c-0.066,1.29,0.692,2.58,1.883,3.091 c1.221,0.574,2.767,0.248,3.672-0.744l32.958-32.934C86.145,18.389,86.497,17.028,86.083,15.863z M92.357,23.474 c-0.925-1.446-3.075-1.834-4.457-0.826c-1.395,0.915-1.801,2.965-0.872,4.35c4.743,7.602,7.031,16.695,6.466,25.639 c-0.993,17.428-12.88,33.622-30.808,39.067c-19.043,5.866-42.523-2.037-52.376-23.436c-3.858-8.254-4.958-17.734-3.225-26.666 c3.451-18.126,17.413-30.466,32.733-34.043c0.761-0.158,1.514-0.478,2.021-1.088c1.015-1.105,1.06-2.931,0.11-4.09 c-0.896-1.206-2.582-1.466-3.937-0.968C26.493,4.216,11.568,12.497,4.024,29.944C-1.961,43.693-4.54,72.191,20.403,90.342 c7.453,5.482,16.458,8.828,25.686,9.51c17.462,1.362,35.748-6.66,46.195-23.25C99.996,64.431,104.833,43.187,92.357,23.474z"/></symbol>
    <symbol id="img-facebook" viewBox="0 0 51.871 100"><path d="M33.738,100V54.312h15.227l2.287-17.724H33.738V25.227c0-5.149,1.377-8.658,8.74-8.658l9.393,0.003V0.658 C50.246,0.441,44.67,0,38.186,0C24.644,0,15.38,8.246,15.38,23.466v13.123H0v17.724h15.376v45.687L33.738,100L33.738,100z"/></symbol>
    <symbol id="img-twitter" viewBox="0 0 100 82.004"><path d="M49.293,25.395c0,0-25.014-0.084-42.49-21.657c0,0-9.72,14.68,6.291,27.715c0,0-5.311-0.194-9.243-2.579 c0,0-0.916,15.527,16.304,20.497c0,0-5.045,1.484-8.986,0.258c0,0,2.397,12.853,19.126,14.565c0,0-13.126,10.646-30.294,8.509 c0,0,13.952,9.78,30.038,9.281c60.8-1.884,59.948-61.618,59.948-61.618S98.033,13.806,100,9.797c0,0-7.924,2.953-11.425,3.093 c0,0,6.588-4.672,8.857-11.343c0,0-8.734,4.614-13.095,4.898c0,0-5.122-6.446-15.019-6.446C59.422,0,46.364,8.144,49.293,25.395z"/></symbol>
    <symbol id="img-googleplus" viewBox="0 0 971.846 1000"><path d="M971.846,483.937H842.772v130.465h-65.296V483.937H646.885v-65.233 h130.592V289.755h65.296v128.948h129.073V483.937z M485.923,54.613c0,0,92.629,60.682,92.629,174.46 c0,158.531-145.777,169.15-145.777,248.795c0,82.679,189.813,102.4,189.813,277.619C622.588,1064.962,0,1075.583,0,816.167 C0,592.405,349.257,594.68,349.257,594.68s-39.481-35.65-39.481-87.988c0-34.134,12.148-51.58,12.148-51.58 C159.444,472.558,65.296,364.09,65.296,256.38C65.296,148.67,145.524,0,406.96,0c93.642,0,242.961,0,242.961,0l-86.556,54.613 H485.923z M115.407,785.828c0,195.698,419.109,222.247,419.109,18.204c0-94.814-145.777-171.426-145.777-171.426 S115.407,615.919,115.407,785.828z M296.109,50.062c-187.347,11.32-127.555,368.641,44.037,368.641 C561.849,418.703,444.908,41.071,296.109,50.062z"/></symbol>
    <symbol id="img-linkedin" viewBox="0 0 100 100"><path d="M93.056,100H6.945C3.109,100,0,96.891,0,93.056V6.945 C0,3.109,3.109,0,6.945,0h86.111C96.891,0,100,3.109,100,6.945v86.111C100,96.891,96.891,100,93.056,100z M14.583,85.416h15.278 V37.5H14.583V85.416z M22.222,13.889c-4.602,0-8.333,3.731-8.333,8.333c0,4.603,3.731,8.333,8.333,8.333 c4.603,0,8.333-3.731,8.333-8.333C30.556,17.62,26.825,13.889,22.222,13.889z M85.416,63.889c0-23.003-6.076-27.083-17.36-27.083 c-8.673,0-13.027,4.092-14.583,5.991V37.5H38.889v47.916h14.584v-23.61c0-8.768,3.905-12.5,9.027-12.5 c5.121,0,7.639,4.253,7.639,14.583v21.527h15.277V63.889z"/></symbol>
    <symbol id="fb-ico" viewBox="0 0 22.438 48.312"><path d="M22.443,15.644 L14.798,15.644 L14.798,10.630 C14.798,8.747 16.046,8.308 16.925,8.308 C17.802,8.308 22.320,8.308 22.320,8.308 L22.320,0.030 L14.889,0.001 C6.641,0.001 4.764,6.175 4.764,10.126 L4.764,15.644 L-0.005,15.644 L-0.005,24.174 L4.764,24.174 C4.764,35.121 4.764,48.311 4.764,48.311 L14.798,48.311 C14.798,48.311 14.798,34.991 14.798,24.174 L21.568,24.174 L22.443,15.644 Z" class="cls-1"/></symbol>
    <symbol id="tt-ico" viewBox="0 0 58 47"><path d="M52.063,11.710 C52.091,12.218 52.100,12.730 52.100,13.244 C52.100,28.923 40.133,47.001 18.246,47.001 C11.528,47.001 5.272,45.037 0.003,41.670 C0.930,41.773 1.881,41.838 2.842,41.838 C8.417,41.838 13.547,39.940 17.621,36.755 C12.409,36.664 8.018,33.229 6.502,28.516 C7.229,28.655 7.976,28.731 8.736,28.731 C9.824,28.731 10.876,28.584 11.872,28.313 C6.428,27.218 2.324,22.429 2.324,16.676 C2.324,16.624 2.324,16.578 2.324,16.528 C3.929,17.414 5.766,17.947 7.716,18.008 C4.523,15.880 2.426,12.245 2.426,8.130 C2.426,5.957 3.012,3.921 4.037,2.169 C9.901,9.347 18.672,14.069 28.563,14.562 C28.357,13.698 28.257,12.788 28.257,11.857 C28.257,5.311 33.583,-0.001 40.152,-0.001 C43.576,-0.001 46.671,1.439 48.841,3.741 C51.548,3.212 54.099,2.224 56.397,0.864 C55.507,3.632 53.617,5.957 51.166,7.425 C53.570,7.142 55.861,6.505 57.997,5.556 C56.405,7.949 54.391,10.037 52.063,11.710 Z" class="cls-1"/></symbol>
    <symbol id="gp-ico" viewBox="0 0 51 46"><path d="M49.940,23.013 L42.249,23.013 L42.249,30.738 C42.249,31.328 41.773,31.806 41.187,31.806 L38.997,31.806 C38.407,31.806 37.932,31.328 37.932,30.738 L37.932,23.014 L30.241,23.014 C29.655,23.014 29.177,22.536 29.177,21.946 L29.177,19.748 C29.177,19.157 29.655,18.677 30.241,18.677 L37.932,18.677 L37.932,10.957 C37.932,10.369 38.407,9.889 38.997,9.889 L41.187,9.889 C41.773,9.889 42.249,10.369 42.249,10.957 L42.249,18.677 L49.940,18.677 C50.526,18.677 51.004,19.156 51.004,19.747 L51.004,21.945 C51.004,22.535 50.526,23.013 49.940,23.013 ZM26.888,4.133 C26.709,4.264 26.489,4.335 26.265,4.335 L25.181,4.335 C26.578,6.018 27.399,8.415 27.399,11.114 C27.399,14.090 25.898,16.906 23.173,19.048 C21.065,20.697 20.981,21.148 20.981,22.091 C21.006,22.610 22.477,24.297 24.095,25.447 C27.867,28.127 29.273,30.756 29.274,35.145 C29.274,39.721 25.806,43.685 20.443,45.248 C18.724,45.748 16.863,46.001 14.911,46.001 C12.739,46.001 10.648,45.749 8.702,45.255 C4.931,44.299 2.141,42.490 0.842,40.156 C0.281,39.147 -0.004,38.072 -0.004,36.955 C-0.004,35.808 0.270,34.645 0.809,33.495 C2.876,29.072 8.321,26.101 14.353,26.101 C14.415,26.101 14.470,26.101 14.527,26.101 C14.036,25.236 13.797,24.340 13.797,23.394 C13.797,22.925 13.860,22.446 13.984,21.959 C7.655,21.813 2.921,17.163 2.921,11.027 C2.921,6.697 6.369,2.477 11.301,0.771 C12.776,0.261 14.281,-0.001 15.761,-0.001 L29.292,-0.001 C29.754,-0.001 30.160,0.299 30.304,0.739 C30.448,1.180 30.290,1.661 29.914,1.932 L26.888,4.133 ZM7.005,35.497 C7.005,38.973 10.466,41.693 14.884,41.693 C20.712,41.693 23.667,39.677 23.667,35.700 C23.667,35.322 23.621,34.933 23.528,34.543 C23.136,32.997 21.726,32.035 19.592,30.574 C19.299,30.374 18.995,30.165 18.679,29.947 C17.757,29.663 16.779,29.515 15.777,29.502 L15.653,29.502 C11.047,29.502 7.005,32.304 7.005,35.497 ZM20.416,11.520 C19.890,7.496 17.029,4.149 14.038,4.060 L13.918,4.059 C12.859,4.059 11.917,4.495 11.197,5.320 C10.083,6.596 9.612,8.616 9.906,10.863 C10.429,14.882 13.352,18.355 16.281,18.446 L16.330,18.446 C16.332,18.446 16.332,18.446 16.332,18.446 C17.433,18.446 18.363,18.010 19.085,17.183 C20.213,15.892 20.712,13.773 20.416,11.520 Z" class="cls-1"/></symbol>
    <symbol id="pt-ico" viewBox="0 0 38.562 49.781"><path d="M20.449,0.015 C6.863,0.015 0.012,9.755 0.012,17.879 C0.012,22.797 1.874,27.172 5.867,28.801 C6.522,29.070 7.109,28.811 7.299,28.086 C7.431,27.586 7.744,26.319 7.883,25.791 C8.074,25.074 8.000,24.824 7.471,24.197 C6.320,22.840 5.583,21.082 5.583,18.590 C5.583,11.364 10.990,4.895 19.662,4.895 C27.341,4.895 31.560,9.587 31.560,15.852 C31.560,24.098 27.911,31.057 22.495,31.057 C19.503,31.057 17.265,28.584 17.981,25.549 C18.840,21.926 20.505,18.018 20.505,15.400 C20.505,13.061 19.248,11.108 16.649,11.108 C13.591,11.108 11.134,14.272 11.134,18.510 C11.134,21.209 12.046,23.035 12.046,23.035 C12.046,23.035 8.917,36.295 8.368,38.617 C7.276,43.242 8.204,48.910 8.283,49.481 C8.329,49.822 8.765,49.903 8.963,49.647 C9.244,49.278 12.888,44.783 14.125,40.289 C14.476,39.018 16.136,32.430 16.136,32.430 C17.130,34.326 20.034,35.992 23.122,35.992 C32.313,35.992 38.550,27.612 38.550,16.396 C38.551,7.914 31.367,0.015 20.449,0.015 Z" class="cls-1"/></symbol>
</svg>
