<svg xmlns="http://www.w3.org/2000/svg" xmlns:xlink="http://www.w3.org/1999/xlink" preserveAspectRatio="xMidYMid" width="962" height="15" viewBox="0 0 962 15">
  <defs>
    <style>
      .cls-1 {
        fill: #ea202c;
        fill-rule: evenodd;
      }
    </style>
  </defs>
  <path d="M954.611,14.484 C954.427,14.656 954.252,14.838 954.058,15.000 C953.712,14.659 953.350,14.333 953.000,13.996 C955.295,11.830 957.595,9.670 959.885,7.500 C957.595,5.330 955.295,3.170 953.000,1.004 C953.350,0.666 953.712,0.341 954.058,-0.000 C956.712,2.495 959.353,5.003 962.000,7.505 C959.535,9.830 957.075,12.159 954.611,14.484 ZM7.942,15.000 C7.748,14.838 7.573,14.656 7.389,14.484 C4.925,12.159 2.465,9.830 0.000,7.505 C2.647,5.003 5.288,2.495 7.942,-0.000 C8.288,0.341 8.650,0.666 9.000,1.004 C6.705,3.170 4.405,5.330 2.115,7.500 C4.405,9.670 6.705,11.830 9.000,13.996 C8.651,14.333 8.288,14.659 7.942,15.000 Z" class="cls-1"/>
</svg>
